<?xml version="1.0" encoding="utf-8"?>
<!-- Generator: Adobe Illustrator 25.4.1, SVG Export Plug-In . SVG Version: 6.00 Build 0)  -->
<svg version="1.1" id="Calque_1" xmlns="http://www.w3.org/2000/svg" xmlns:xlink="http://www.w3.org/1999/xlink" x="0px" y="0px"
	 viewBox="0 0 798.6 348" style="enable-background:new 0 0 798.6 348;" xml:space="preserve">
<style type="text/css">
	.st0{fill:#FFFFFF;}
</style>
<g>
	<path class="st0" d="M397.5,348c-15-3.7-30-7.4-45.1-11C236.7,309.9,121,282.8,5.2,255.7C4,255.4,2.7,255,0,254.2
		c114.1-26.7,226.9-53.2,339.6-79.6c0-0.5,0.1-0.9,0.1-1.4c-2.9-0.2-5.9-1-8.7-0.4c-13.7,2.9-27.3,6.1-42.4,9.5
		c0.8-7,1.6-13.4,2.4-20.2c-5.8-1.4-12.7-3-20.2-4.8c-0.9,3-1.7,5.8-2.6,8.6c-5.2,15.5-14.3,26.9-31.3,30.2
		c-12.3,2.4-21.2-1.8-26.8-13.1c-5.7-11.5-6.7-24-7.1-36.5c-0.1-4.1-1.2-5.8-5.3-6.6c-9.8-2-19.5-4.5-29.2-6.6
		c-1.5-0.3-4.1,0.5-4.7,1.6c-13,22.3-25.7,44.7-38.5,67.2c-0.2,0.4-0.4,0.9-1,2.4c18.4-4.2,36.1-8.2,54.1-12.2c0,5.3,0,10.1,0,15.3
		c-24.4,5.6-48.8,11.2-73.5,16.8c-0.5-7.6-0.4-14,3.6-20.6c13-21.3,25.3-43.1,37.8-64.7c1.7-3,3.1-6.2,5-9.9
		c-11.2-2.6-21.7-5.6-32.4-7.4c-10.4-1.8-20.5-5.3-31.3-7.4c-0.4,24.4-11.4,44.4-23,64.1c-8.7,14.9-17.6,29.8-27,45.9
		c18.8-4.3,36.3-8.3,54.7-12.4c0,4.8,0.1,9.2-0.1,13.6c0,0.8-1.3,1.9-2.1,2.2C66,233.4,42.4,238.8,18,244.4c0-6.8-0.9-12.6,2.7-18.7
		c12.6-20.8,25-41.8,36.7-63.1c5.1-9.2,9.3-19.2,12.2-29.4c1.7-6.1,0.4-13.2-0.2-19.7c-0.1-1.6-2.6-3.7-4.4-4.3
		c-5.2-1.7-10.6-2.9-16-3.7c-2.1-0.3-5,0.3-6.6,1.7c-6.6,5.6-8.9,13.4-9.9,21.7c-0.3,2.5-0.4,4.9-0.7,7.6
		c-5.2,1.2-10.2,2.3-15.7,3.6c-0.3-14.8,3.8-27.5,12.7-39.5c-9.2-2.2-18-4.3-26.8-6.4c0-0.3,0-0.7,0-1c13-3.1,25.9-6.2,38.9-9.2
		c117.4-27.5,234.7-55,352.1-82.5c1.6-0.4,3.1-1.1,4.6-1.7c1.3,0,2.7,0,4,0c11.9,3,23.8,6.1,35.7,8.9C557.1,37,676.9,65,796.6,93.1
		c0.3,0.1,0.6,0.3,2,0.9c-9.8,2.4-18.7,4.5-28.3,6.8c8.7,11.9,13,24.6,12.6,39.4c-5.5-1.2-10.5-2.4-15.5-3.5
		c-0.6-4.3-0.8-8.5-1.7-12.5c-0.8-3.4-1.9-6.8-3.4-9.8c-4.5-8.9-7.4-10-16.9-7.7c-3.4,0.8-6.8,1.9-10.2,2.3
		c-4.1,0.5-5.6,2.9-6.2,6.5c-1.6,10-0.7,19.7,3.5,28.9c3.5,7.9,7.5,15.6,11.8,23.1c11.1,19.4,22.2,38.7,33.8,57.8
		c3.8,6.2,2.9,12.3,2.9,19.1c-14.5-3.3-28.5-6.4-42.4-9.6c-9.4-2.2-18.8-4.2-28.2-6.7c-1.3-0.3-3-2.4-3.2-3.8
		c-0.4-3.8-0.2-7.6-0.2-12.2c18.1,4.1,35.7,8.1,54.5,12.4c-1.3-2.5-2.1-4-2.9-5.4c-8.8-14.9-17.7-29.8-26.4-44.8
		c-9.2-15.9-17.6-32.2-19.9-50.8c-0.3-2.8-0.4-5.6-0.7-9.1c-20.9,6.3-42.2,9.1-63.4,15.3c1.5,3.1,2.8,6.1,4.5,8.9
		c12.6,21.8,25,43.7,38,65.2c3.9,6.5,4.5,12.9,3.7,20.7c-24.6-5.6-49-11.2-73.5-16.8c0-5.2,0-9.9,0-15.3c17.9,4.1,35.5,8.1,54,12.3
		c-0.9-1.8-1.3-2.9-1.9-3.9c-12.5-21.8-24.9-43.7-37.5-65.4c-0.6-1.1-2.9-2.1-4.2-1.8c-10.6,2.3-21.1,5-31.6,7.3
		c-2.7,0.6-3.4,1.8-3.6,4.3c-0.6,8-1.5,15.9-2.4,23.8c-0.3,2.3-1.1,4.5-1.7,6.8c-7.1,24.2-24.8,25-41.3,16.5
		c-9.6-4.9-15.1-13.4-18.7-23.2c-1.3-3.6-2.3-7.2-3.7-11.5c-7.1,1.7-14.2,3.3-20.2,4.7c0.9,6.7,1.7,13,2.6,20.2
		c-11.1-2.5-20.9-5-30.8-7c-6.1-1.2-12.3-1.6-18.5-2.3c-0.5-0.1-1.1,0.5-2.6,1.2c113.7,26.6,226.4,53.1,339,79.5c0,0.3,0,0.6,0,0.9
		c-14.6,3.4-29.2,6.8-43.8,10.3c-115.6,27.1-231.1,54.1-346.7,81.3c-1.6,0.4-3,1.1-4.5,1.7C400.9,348,399.2,348,397.5,348z
		 M784.7,254.5c-2.2-0.7-3.1-1.1-4-1.3c-125.9-29.5-251.9-59-377.8-88.4c-2-0.5-4.3-0.5-6.3,0c-16.6,3.7-33.1,7.6-49.6,11.5
		c-109.2,25.6-218.5,51.2-327.7,76.8c-1.1,0.3-2.1,0.8-4,1.5c2.4,0.6,3.9,1,5.3,1.4c124.8,29.3,249.6,58.5,374.4,87.6
		c3.1,0.7,6.6,0.6,9.7-0.1c84.6-19.7,169.2-39.6,253.8-59.4C700.1,274.3,741.7,264.6,784.7,254.5z M401.7,3.9
		c-0.1,1.3-0.3,2-0.3,2.6c0,50.3,0,100.6-0.1,151c0,2.7,0.9,3.8,3.5,4.4c14.3,3.3,28.5,6.8,42.8,9.9c2.7,0.6,5.7-0.3,8.5-0.5
		c-5.7-2.5-11.4-3.6-17-5.2c-1.3-0.4-3.2-2-3.3-3.2c-0.4-4.1-0.2-8.2-0.2-12.8c18.2,4.1,35.9,8.2,54.8,12.4
		c-8-13.5-15.5-25.7-22.4-38.2c-7.3-13.1-14.5-26.2-20.8-39.8c-5.7-12.4-8.3-25.6-5.6-39.5c3.2-16.6,15.3-24.8,31.8-21.3
		c19.9,4.2,30.8,17.5,36,36.1c1.6,5.7,1.9,11.9,2.9,18.4c-3.1-0.6-4.9-1-6.7-1.4c-9.1-2-9-2.1-10.5-11.1c-0.4-2.6-0.9-5.3-1.7-7.8
		c-3-9.1-8.4-15.8-18.1-18.3c-6.5-1.7-11.6,0.3-14.8,6.2c-1.5,2.7-2.5,5.8-3,8.9c-2.3,13.1,1.4,25.2,7.6,36.4
		c12.4,22.1,25.1,43.9,37.8,65.8c0.6,1,2.3,2.3,3.3,2.1c7.1-1.4,14.1-3.2,19.7-4.5c-0.2-23.1-0.6-45.2-0.3-67.3
		c0.1-10.8,1.9-21.6,6.8-31.5c4.7-9.3,12.1-13.9,22.7-13c12.6,1.1,22.8,6.6,29.2,17.6c3.6,6.2,6.3,13.3,8.1,20.3
		c4.3,16.1,3.7,32.7,3.7,49.2c0,2.6,0,5.2,0,8.3c12.7-3,24.5-5.8,36.5-8.6c-1.7-5.1-3.3-9.4-4.5-13.9c-3.1-10.9-4-22-0.4-33
		c4.2-13,14.8-19.4,28.3-17.1c21.1,3.6,36.1,19.6,39.7,42.6c0.3,2.1,0.7,4.1,1,6.4c3.6-0.8,6.5-1.8,9.4-2.1c4.4-0.5,6.3-2.4,7.3-7
		c2.9-13.5,12-20.9,24.5-20.5c10.1,0.3,19.2,3.8,27,10.4c1.1,0.9,2.6,2.4,3.6,2.2c5-0.9,9.9-2.2,14.8-3.4c0-0.3-0.1-0.6-0.1-1
		C656.1,63.5,529.1,33.8,401.7,3.9z M102.2,114.5c0.5-3.2,0.9-5.7,1.4-8.1c4.3-22.6,19.2-37.7,40.2-40.9
		c12.2-1.9,22.2,3.8,26.7,15.2c3.2,7.9,3.9,16.3,2.4,24.6c-1.5,8.1-3.9,16.1-6,24.4c11.7,2.7,23.5,5.5,36.7,8.5
		c0-13.8-0.4-26.6,0.1-39.4c0.5-12.2,3-24.2,8.8-35.1c7.1-13.3,18.2-20.4,33.4-21c8.7-0.3,15.5,3.4,19.3,11c2.9,5.7,5.3,12,6.3,18.3
		c3.8,25.5,3,51.1,0.7,76.8c-0.2,1.7-0.4,3.5-0.6,5.4c6.7,1.6,12.9,2.9,19,4.6c3.1,0.8,4.7-0.1,6.3-2.9
		c10.2-17.8,20.7-35.3,30.8-53.2c4.2-7.5,8.1-15.3,11.3-23.3c3.7-9.3,4.5-19.1,1.6-28.9c-3.1-10.6-10.9-14-21-9.4
		c-5.5,2.5-9.9,6.6-11.9,12.2c-2,5.7-2.8,11.9-4.3,17.8c-0.3,1.4-1.1,3.4-2.1,3.7c-4.4,1.3-8.9,2.2-14.4,3.4
		c0.6-5.5,0.9-10.3,1.8-15c4.2-21.3,18.2-35.9,37.9-39.8c14.8-2.9,26.4,4,30,18.6c1.5,6,1.9,12.6,1.4,18.8
		c-1.2,15.4-7.5,29.3-15,42.6c-10.1,18-20.8,35.7-31.2,53.5c-0.9,1.5-1.7,3-3.1,5.5c18.7-4.3,36.3-8.3,54.6-12.4
		c0,4.1-0.2,7.7,0.1,11.3c0.2,3-0.7,4.4-3.9,5c-5.6,1-11.1,2.6-16.6,3.9c0.1,0.5,0.1,1.1,0.2,1.6c3.7-0.2,7.5,0.1,11.1-0.7
		c10.8-2.2,21.4-4.9,32.1-7.4c3.8-0.9,7.6-1.9,11.2-2.8c0-52.6,0-104.6,0-157C269.9,33.8,143,63.6,16.1,93.3
		c2.9,1.7,5.8,2.2,8.6,3.1c4.2,1.4,7.4,0.9,11.2-2.2c8.5-7.1,18.7-10.2,29.8-9C76,86.5,83,94.3,86,106.6c0.4,1.8,1.7,4.2,3.2,4.7
		C93.2,112.8,97.5,113.4,102.2,114.5z M256.3,150.6c0.4-3.3,0.9-5.7,0.9-8.2c0.1-18.1,0.3-36.3-0.1-54.4c-0.1-5.9-1.5-11.9-2.9-17.7
		c-1.4-5.4-4.1-10.5-10.4-11.4c-6.7-1-12.4,1.6-15.9,7.2c-2.8,4.4-5,9.5-6.2,14.5c-4.5,19.3-2.5,39.1-2.7,58.7c0,1,1.3,2.7,2.4,3
		C232.7,145.2,244.1,147.8,256.3,150.6z M543.1,150.6c11.5-2.7,22.8-5.2,34.1-8.1c1.2-0.3,2.7-2.7,2.8-4.2c0.2-11,0.5-22,0-32.9
		c-0.5-9.4-1.6-18.9-3.6-28.1c-1-4.8-3.9-9.7-7.2-13.3c-8.4-9-19.8-6.3-23.9,5.2c-0.7,1.9-1.3,3.8-1.6,5.8
		c-3.6,24.7-2.4,49.4-1.1,74.2C542.5,149.4,542.7,149.7,543.1,150.6z M681.2,118.3c-0.6-4.5-0.9-8.2-1.6-11.8
		c-1.6-9.6-5.4-17.9-14.6-22.6c-10.4-5.4-19-1.8-22,9.5c-3,11.2-1.2,22.1,3.5,33C658.4,123.6,670,120.9,681.2,118.3z M152.3,126.3
		c4.5-10.4,6.2-20.6,4-31.2c-2.7-13.2-13-17.7-24.2-10.1c-3.9,2.7-7.5,6.8-9.5,11.1c-2.3,5-2.9,10.8-4.1,16.3
		c-0.4,1.8-0.6,3.6-0.9,5.8C128.9,120.8,140.4,123.5,152.3,126.3z M255.8,153.9c-12.3-2.9-24.3-5.7-37.9-8.8c2,9.6,2.9,18.1,5.5,26
		c3.9,11.5,15.1,13.4,23.6,4.6C252.6,169.7,254.5,162.2,255.8,153.9z M579.8,145.8c-1.8,0.2-3.1,0.3-4.4,0.6
		c-10.6,2.5-21.3,5-31.8,7.5c0.1,8.4,4,18,9,22.5c8.4,7.6,18.3,5.8,22.7-4.5C578.8,163.7,579.7,155,579.8,145.8z M733.5,106
		c4.8-1.1,9.1-2.1,14.1-3.3C741.2,100.1,737.8,100.9,733.5,106z M65.4,105.9c-4.8-5.1-8-5.8-13.8-3.3
		C56.2,103.7,60.3,104.7,65.4,105.9z"/>
	<path class="st0" d="M202.8,192.2c0,7.9-5.7,13.8-13.3,13.8c-4.7,0-7.6-3.4-7.6-9.1c0-7.9,5.6-14,13-14
		C200,182.8,202.8,186.2,202.8,192.2z"/>
	<path class="st0" d="M747.6,102.6c-5,1.2-9.3,2.2-14.1,3.3"/>
</g>
</svg>
