<?xml version="1.0" encoding="utf-8"?>
<!-- Generator: Adobe Illustrator 25.4.1, SVG Export Plug-In . SVG Version: 6.00 Build 0)  -->
<svg version="1.1" id="Calque_1" xmlns="http://www.w3.org/2000/svg" xmlns:xlink="http://www.w3.org/1999/xlink" x="0px" y="0px"
	 viewBox="0 0 2881 4206" style="enable-background:new 0 0 2881 4206;" xml:space="preserve">
<style type="text/css">
	.st0{fill:#FFFFFF;}
</style>
<g>
	<path class="st0" d="M809.8,4206c0-4.7-0.1-9.3-0.1-14c0-376.3,0-752.7,0-1129c0-4.6,0-9.2,0-14.6c-83,0-164.8,0-246.4,0
		c-2.5-7.7-3.2-279.3-0.9-294.3c81.9,0,164,0,247.3,0c0-5.4,0-9.6,0-13.9c0-186.3,0.1-372.7-0.1-559c0-53.7,0.4-107.3,6.2-160.8
		c9.3-86.7,28.2-170.8,66.7-249.7c64.1-131.3,166-217.1,307.6-254.6c73.4-19.4,148.2-26,223.9-20.3c79.4,5.9,155.7,24.7,228,58.5
		c13.9,6.5,27.1,14.3,40.5,21.6c2.9,1.6,5.5,3.6,9,5.9c-46.5,79.1-92.7,157.7-139.3,237c-2.3-1.6-4.2-2.7-5.7-4.2
		c-30.2-29.2-66.9-44-108.2-48.8c-39.8-4.6-79.3-2.2-117.8,8.9c-65,18.6-111.4,59.4-140.9,119.8c-17.4,35.6-27.3,73.6-33.8,112.5
		c-7.8,46.8-10.4,94-10.4,141.4c0,197.3,0,394.7,0,592c0,4,0,8,0,13.2c12,0.8,23.5,0.3,35,0.4c12,0.1,24,0,36,0c11.7,0,23.3,0,35,0
		c12,0,24,0,36,0c11.7,0,23.3,0,35,0c12,0,24,0,36,0c11.7,0,23.3,0,35,0c12,0,24,0,36,0c11.7,0,23.3,0,35,0c12,0,24,0,36,0
		c11.7,0,23.3,0,35,0c12,0,24,0,36,0c11.6,0,23.2,0,35.3,0c0,98.2,0,195.4,0,294c-25.6,0.3-51.1,0.1-76.6,0.1c-25.3,0-50.7,0-76,0
		c-25.7,0-51.3,0-77,0c-25.7,0-51.3,0-77,0c-25.3,0-50.7,0-76,0c-25.6,0-51.3,0-77.5,0c-0.5,2.6-1,4.7-1.2,6.9
		c-0.2,2.7-0.1,5.3-0.1,8c0,376.7,0,753.4,0,1130c0,4.3,0.2,8.6,0.3,13C1027.1,4206,918.4,4206,809.8,4206z"/>
	<path class="st0" d="M1915.5,4206c0-3.7-0.1-7.3-0.1-11c0-474.3,0-948.6,0-1423c0-4.3,0-8.6,0-12.7c7.7-2.1,278.6-2.6,290.7-0.6
		c8,112,16,224.2,24.2,338.4c2-2.6,3.1-3.6,3.7-4.9c47.5-97.3,117.4-175.5,202.8-241c84.1-64.5,176.9-110.9,279.2-138.4
		c27.1-7.3,54.6-12.1,82.5-14.5c3-0.3,6-0.4,9-0.4c0.9,0,1.8,0.5,3.8,1c-4.6,107.7-9.3,215.4-14,324.1c-4.3,0-7.8,0.1-11.4,0
		c-74.1-2.1-146.3,8.2-215.2,36c-135.2,54.5-231.4,149.4-288.8,283.4c-27.6,64.5-40.9,132.1-40.9,202.3c0.1,217.3,0,434.7,0,652
		c0,3,0.2,6,0.3,9C2132.8,4206,2024.2,4206,1915.5,4206z"/>
	<path class="st0" d="M199.9,4206c-5.8-1.3-11.6-2.5-17.3-4.1c-69.3-19.3-117.9-61.1-137-131.7c-27.2-100.6,35.1-206.8,135.2-232.7
		c52.4-13.6,100.3-3.1,143.5,29.1c30.1,22.5,54.8,49.6,69.3,84.9c26.2,64,22.6,165.8-73.5,227.1c-20.2,12.9-41.9,21.7-65.5,25.7
		c-1.5,0.3-3,1.2-4.5,1.8C233.3,4206,216.6,4206,199.9,4206z"/>
	<path class="st0" d="M678.4,665.1c-64-136.6-127.9-273.1-192.9-412c-59.1,138.7-117.3,275.3-176.4,414.1
		C215.4,453,122.7,240.8,29.4,27.6c3.2-0.4,5.6-1.1,8-1.1c39.3-0.1,78.6,0.1,117.9-0.2c6.5-0.1,9.2,2.6,11.7,8.1
		c22.2,50.6,44.6,101.2,66.9,151.7c28.3,64,56.5,127.9,84.8,191.9c1.7,3.9,3.6,7.8,6.2,13.1c1.9-3.7,3.3-6.1,4.4-8.7
		c34.8-81.4,69.6-162.9,104.6-244.3c2.5-5.8,2.4-10.4-0.3-16c-13-27.4-25.7-54.9-38.4-82.4c-1.8-3.8-3.5-7.7-5.7-12.6
		c39.7,0,78.2,0,118.2,0c53.7,123.3,107.8,247.4,162.9,373.8c51.5-126,102.1-249.9,152.8-374c44.5,0,88.4,0,132.1,0
		c0.3,0.5,0.6,0.7,0.7,1c0.1,0.3,0.4,0.7,0.3,0.9c-1.4,3.7-2.8,7.5-4.3,11.1c-90.5,207.9-181,415.8-271.6,623.7
		C680.4,664.1,679.6,664.3,678.4,665.1z"/>
	<path class="st0" d="M1248.7,664.6C1156.1,452.7,1063.4,240.8,970.4,28c3-0.6,5.1-1.4,7.2-1.4c40-0.1,80,0.1,119.9-0.3
		c6.9-0.1,8.3,3.9,10.4,8.5c27.3,61.8,54.6,123.7,82,185.5c23.6,53.3,47.1,106.6,70.7,159.9c1.4,3.2,3.1,6.3,5.4,10.8
		c1.8-3.6,3-5.9,4-8.2c35-81.7,69.9-163.5,105-245.2c2.3-5.4,2.1-9.7-0.4-14.9c-13.3-28-26.2-56.1-39.2-84.2
		c-1.5-3.3-2.9-6.6-4.9-11.3c4.3-0.3,7.4-0.6,10.5-0.7c32.7,0,65.3,0.2,98-0.2c7.2-0.1,10.4,2.4,13.2,8.9
		c51,117.6,102.3,235.1,153.5,352.6c1.6,3.6,3.3,7.1,5.9,12.8c51.3-125.6,101.9-249.3,152.6-373.5c44.4,0,88.5,0,134.4,0
		c-92.8,213.4-185.1,425.7-278.4,640.1c-64.9-138.6-128.9-275.3-193.9-414.1c-58.9,138.3-117.1,274.8-175.2,411.4
		C1250.3,664.5,1249.5,664.5,1248.7,664.6z"/>
	<path class="st0" d="M2559.6,666.4c-64.7-138.1-128.6-274.7-193.5-413.3c-58.9,138.3-117.1,274.8-175.1,411
		c-0.8,0.1-1.1,0.1-1.4,0.1c-0.3-0.1-0.8-0.2-0.9-0.4c-92.4-211-184.8-422.1-277.2-633.2c-0.3-0.8,0-1.9,0-3.6
		c3.3-0.2,6.5-0.6,9.7-0.6c37.6,0,75.3,0.2,112.9-0.2c7.5-0.1,11,2.4,14,9.2c49.7,113.1,99.8,226,149.7,339
		c2.2,5.1,4.6,10.1,7.7,16.6c1.8-3.5,2.9-5.3,3.8-7.3c35.1-82,70.1-164.1,105.4-246.1c2.3-5.3,2.3-9.7-0.2-14.9
		c-12.9-27.1-25.4-54.3-38-81.5c-1.9-4.2-3.8-8.4-6.1-13.5c3-0.5,5.2-1.3,7.3-1.3c34.3-0.1,68.6,0.1,103-0.2
		c6.3-0.1,8.6,2.7,10.8,7.8c34.6,79.7,69.3,159.4,104.1,239.1c16.9,38.8,33.8,77.5,50.7,116.3c1.3,3,2.8,5.9,5.2,11
		c51.5-125.4,101.8-249.2,152.6-373.3c44.3,0,88.4,0,132.6,0C2835.5,35,2572,643.3,2559.6,666.4z"/>
	<path class="st0" d="M1143.5,1217c0,44.5,0,87.4,0,130.9c-15.9,0-31.1,0-47,0c0-105.5,0-210.9,0-317.8c6.6,0,13.1,0,19.6,0
		c6.6,0,13.3,0,20.9,0c1.6,11.4,3.1,22.3,4.8,34.8c3.7-3.4,6-5.6,8.4-7.7c27-24.3,58.4-35.8,94.6-31c38.4,5.1,65.7,26.3,81,61.8
		c12.5,28.8,14,59,4.5,88.9c-13.3,41.8-43.5,64.9-85.9,72.9c-29.1,5.4-56.4,0.8-81.1-16.1C1157,1229.1,1151.3,1223.5,1143.5,1217z
		 M1143.3,1139.5c0.5,7.6-0.1,15.5,1.7,22.8c5.9,24.4,21.8,40.3,45.5,47.3c52.3,15.5,107-26.5,94.8-86
		c-5.9-28.9-23.7-48.6-52.6-55.4c-29.9-7.1-56.2,0.8-75.9,25.4C1146.1,1106.9,1141.5,1122.3,1143.3,1139.5z"/>
	<path class="st0" d="M422.3,1245.6c0-132.5,0-264,0-395.5c7.9-2.2,37.6-2.3,47.6-0.1c0,87.8,0,175.9,0,266.5
		c37.5-30.1,73.2-58.8,109.6-87.9c9.8,8.6,19.2,16.9,29.4,25.8c-26.5,21.3-52,41.9-78.4,63.2c29.3,42.7,58.3,84.7,88.4,128.6
		c-9.3,0-16.5,0-23.6,0c-8.3,0-16.7-0.4-25,0.1c-5.8,0.3-9-2-12-6.7c-18.2-28.7-36.7-57.2-55.1-85.8c-1.8-2.8-3.7-5.4-6.2-9
		c-8.6,7-17,13.4-24.8,20.5c-2,1.8-2.3,6-2.4,9.1c-0.2,20.3-0.1,40.7-0.1,61c0,3.2-0.3,6.5-0.4,10.3
		C453.6,1245.6,438.5,1245.6,422.3,1245.6z"/>
	<path class="st0" d="M1990.9,1064c1.2-9.6,2.4-19.3,3.7-29.4c3.1-0.3,5.7-0.6,8.2-0.7c11.6-0.1,23.2,0,35.4,0
		c0,71.1,0,141.2,0,211.8c-15.7,0-30.8,0-47,0c0-10.2,0-20,0-31.9c-3.4,2.9-5.4,4.3-7.1,5.9c-32.6,31.5-70.7,39.6-113.4,25.8
		c-28.9-9.4-49.5-28.8-60.1-57.3c-13.3-35.9-12.9-72.1,5-106.5c18-34.6,47.6-52.8,86.4-56.1c34.8-2.9,63.4,8.7,85.1,36.4
		c0.6,0.8,1.4,1.4,2.2,2C1989.5,1064.1,1989.9,1064,1990.9,1064z M1992,1136.7c-1.2-9.2-0.8-19.6-4.2-28.6
		c-12-32.1-50.3-50-84.9-40.9c-30.5,8-50.3,33.4-52.2,66.7c-2.5,44.3,33,80.3,77,78c28.5-1.5,52.7-19.2,60.6-45.7
		C1991,1157,1990.8,1147.1,1992,1136.7z"/>
	<path class="st0" d="M1477.8,1025.2c42.8,0,74.3,12.3,98.2,41.3c44.8,54.4,30.5,161.3-63.9,182.2c-25.6,5.7-51.1,4.2-75.7-5.1
		c-51-19.3-74.5-65.9-69.9-116.7C1372.1,1067.3,1421.5,1024.7,1477.8,1025.2z M1413.9,1138c1.3,7.8,1.8,16,4.1,23.5
		c8.5,26.9,26,44.9,54.4,49.5c26.9,4.3,49.3-5.1,65.3-27.4c13.6-18.9,16.3-40.3,11.9-62.8c-5.6-28.7-29.2-51.6-56.1-55
		c-31.6-4-58,10.5-71.5,39.3C1417,1115.4,1414.8,1126.4,1413.9,1138z"/>
	<path class="st0" d="M756.9,1025.3c18.5-0.2,39.2,4.1,58,15.4c39.9,24,57.1,60.5,54.3,106c-3.3,52.7-37.1,91.2-88.5,102.1
		c-27,5.8-53.9,4-79.3-7.1c-41.5-18.2-63.2-50.7-65.5-95.7c-2.4-47.7,17.1-83.9,59.1-107.2C712,1029.3,731.6,1025.2,756.9,1025.3z
		 M820.4,1133.9c0.1-6.5-1.5-17.4-6.3-27.5c-11.5-24.4-29.8-39.6-57.6-41.3c-26.8-1.7-47.3,9.6-61,32.2
		c-16.6,27.5-16.4,55.8,0.3,83.1c19.7,32.3,62.7,41.6,93.3,20.4C810.9,1186,820.4,1164.5,820.4,1133.9z"/>
	<path class="st0" d="M2373.1,1139.2c-1.6-59.9,44.1-109.5,106.9-113.5c20.9-1.3,41.2,0.7,60.6,9.1c44,18.9,70,62.9,66.3,111.8
		c-4,52.6-37.1,91.1-88.5,102.3c-26,5.6-51.7,3.9-76.6-5.8C2398.5,1226.2,2373.2,1187.7,2373.1,1139.2z M2559.4,1137.8
		c-2.5-10.3-3.6-21.1-7.7-30.6c-10.6-24.8-29.2-40-56.9-41.9c-27.2-1.9-48,9.4-61.8,32.4c-16.5,27.5-16.2,55.9,0.7,83.1
		c24.3,39.1,78.8,42,108,6.5C2553.4,1173,2558.1,1156.4,2559.4,1137.8z"/>
	<path class="st0" d="M2855.6,1245.6c-15.8,0-31.1,0-47.6,0c0-4,0-7.6,0-11.1c0-40,0-80,0-120c0-3,0.1-6,0-9
		c-0.9-23.1-13.9-40.4-44.1-38.6c-23,1.4-38.9,14.3-49.8,33.8c-7.6,13.7-10.7,28.6-10.7,44.2c0,29.7,0,59.3,0,89c0,3.6,0,7.2,0,11.5
		c-16.1,0-31.2,0-46.4,0c-2-7-2.6-196.8-0.5-211.6c6.6,0,13.5,0,20.4,0c6.9,0,13.9,0,21.5,0c1.1,12.6,2.2,24.4,3.4,38
		c2.3-2.8,3.5-4.2,4.5-5.7c16.2-24.5,39.6-37.1,68.3-39.8c10.8-1,22.1-0.5,32.7,1.8c29,6.2,48.7,29.3,49.2,58.9
		c0.8,51.6,0.2,103.3,0.1,155C2856.5,1242.8,2856.1,1243.7,2855.6,1245.6z"/>
	<path class="st0" d="M154.2,1033.7c12.2,0,23.8,0,35.4,0c1.9,0,3.9,0.4,6.5,0.6c1.1,12,2.1,23.8,3.3,37.7c2.5-3.3,3.7-4.8,4.7-6.4
		c16.4-24.4,39.8-36.9,68.5-39.5c10.8-1,22.1-0.4,32.7,1.9c29.7,6.5,48.7,30.9,48.7,61.3c0.1,49.3,0,98.7,0,148
		c0,2.3-0.2,4.6-0.3,7.5c-7.8,2.4-15.8,0.9-23.6,1.1c-7.6,0.2-15.2,0.1-23.9,0.1c-0.2-4.2-0.4-7.7-0.4-11.3c0-40.3,0-80.7,0-121
		c0-2.7,0.1-5.3,0-8c-1.7-26.4-16.6-40.2-44-38.9c-19.7,1-34.6,11-45.7,26.8c-11.2,15.9-15,33.9-15,53c0,29,0,58,0,87
		c0,3.6,0,7.3,0,12.1c-8.3,0.1-15.8,0.3-23.3,0.4c-7.6,0.1-15.2,0-22.6,0C152.6,1238.3,151.9,1048.4,154.2,1033.7z"/>
	<path class="st0" d="M24.5,876.1c16.6,0,32.4,0,48.7,0c0,123.4,0,246.2,0,369.5c-16.4,0-32.2,0-48.7,0
		C24.5,1122.6,24.5,999.8,24.5,876.1z"/>
	<path class="st0" d="M2175.5,1245.7c-16.6,0-31.8,0-48.2,0c0-57.6,0-114.7,0-173.2c-7.3,0-13.5,0-19.8,0c-6.2,0-12.5,0-19.2,0
		c0-13.2,0-25,0-38.2c12.8,0,25.2,0,38.6,0c0-31.8,0-62.3,0-93.5c16.4,0,31.9,0,48.3,0c0,31,0,61.5,0,93c19.5,0,38,0,57.9,0
		c0.4,13.1,0.4,25.2-0.1,38.4c-19.1,0-37.6,0-57.4,0c-0.4,15.3-0.1,29.4-0.2,43.6c0,14.3,0,28.7,0,43s0,28.7,0,43
		C2175.5,1216.1,2175.5,1230.4,2175.5,1245.7z"/>
	<path class="st0" d="M965.7,1245.6c-16.6,0-31.8,0-47.5,0c0-70.4,0-140.3,0-211.5c13.6-0.4,27.1-0.2,41.9-0.1
		c1.3,15.3,2.5,30.3,4,47.5c20.5-31.9,47.3-51,83.9-56.5c0,8.5,0,16,0,23.5c0,7.6,0,15.3,0,23.8c-5,0.5-8.9,0.8-12.8,1.2
		c-39,3.2-69.2,35.4-69.6,74.5c-0.2,28.7,0,57.3,0,86C965.7,1237.5,965.7,1241.1,965.7,1245.6z"/>
	<path class="st0" d="M1696.6,1245.8c-16.6,0-31.5,0-46.3,0c-2-7.7-2.6-198.3-0.6-211.2c13.4,0,26.8,0,41.5,0
		c1.2,14.7,2.4,29.4,3.8,46.9c20.9-32,47.6-51.1,85-56.5c-0.6,16.3-1.2,31.5-1.9,47.4c-3.9,0.4-7.1,0.8-10.3,1.1
		c-40.9,3.2-70.8,34.8-71.2,75.9c-0.3,28.3-0.1,56.6-0.1,84.9C1696.6,1237.7,1696.6,1241.3,1696.6,1245.8z"/>
	<path class="st0" d="M2323.4,1245.6c-16.5,0-31.7,0-47.4,0c0-70.6,0-140.6,0-211.2c15.6,0,30.8,0,47.4,0
		C2323.4,1104.7,2323.4,1174.6,2323.4,1245.6z"/>
	<path class="st0" d="M2301,984c-16,0.1-29.2-11.6-29.4-26.2c-0.2-14.5,12.9-26.9,28.7-27.2c15.5-0.3,28.8,12.2,28.8,27
		C2329,972,2316.4,983.9,2301,984z"/>
</g>
</svg>
