<?xml version="1.0" encoding="utf-8"?>
<!-- Generator: Adobe Illustrator 23.0.3, SVG Export Plug-In . SVG Version: 6.00 Build 0)  -->
<svg version="1.1" id="Calque_1" xmlns="http://www.w3.org/2000/svg" xmlns:xlink="http://www.w3.org/1999/xlink" x="0px" y="0px"
	 viewBox="0 0 600 402" style="enable-background:new 0 0 600 402;" xml:space="preserve">
<style type="text/css">
	.st0{fill:#FFFFFF;}
</style>
<g>
	<path class="st0" d="M165.8,212.6c-0.1,3.5-0.8,7,4.7,7.5c2.8,0.3,2,3.4,1.5,5.5c-0.8,3.2,0.1,4.6,3.5,4.8
		c4.5,0.3,8.9,1.1,13.3,1.7c0.3,0,0.8,0,1,0.2c4.2,6.4,9.9,2.8,15.2,2.4c2.9-0.2,4.3-1.8,4-4.5c-0.4-3.2-2.5-3.4-5.2-2.4
		c-1.4,0.5-2.9,0.6-4.4,0.7c-2.1,0.1-3.6-0.4-2.9-3.2c0.4-1.6,0.1-3.3,0.1-4.9c0.1-1.4,0.1-2.9-1.7-3c-1.7-0.1-2.6,1.8-2.1,2.7
		c2.4,4.2-2.6,6-2.8,9.2c0,0.6-0.5,1.3-1.4,1.1c-1-0.2-1.4-0.9-1.4-1.8c-0.4-3.9,0.5-7.8-1.6-11.6c-0.9-1.7,1.5-1.4,2.7-1.8
		c6.5-2.1,6.7-2.8,1.7-7.2c-3-2.7-4.5-7.7-7.2-9.1c-3.1-1.6-6.2-3.2-9-5.4c-1.8-1.3-2.5-2.8-2.3-5.1c0.7-9.9-0.4-19.9,0.9-29.9
		c0.8-5.8-0.5-12-1.1-18c-0.3-3.3-3.4-4.6-5.3-6.7c-0.6,0.4-1,0.6-1.1,0.8c-0.3,2.6,0,6.7-2.5,6.9c-3,0.2-2-4.2-3-6.4
		c-0.4-0.9-0.4-1.9-0.6-2.9c-0.4-2.5-1.5-3.4-3.5-1.3c-2.3,2.4-4.6,4.8-6.9,7.2c-1.9,2.1-0.5,3.7,1,5.1c1.2,1.2,3.7,2,1.3,4.1
		c-2.1,1.8-3.5,1.2-5.2-1.1c-2.1-2.9-5.4-4.7-9-4c-2.6,0.5-3.6-0.6-4.1-2.4c-0.6-2.4,1.9-3.6,3.3-3.5c3.8,0.4,5.7-1.8,7.8-4.2
		c3.5-4,3.5-4,5.6,1.3c2.4-1.6,2.3-4.3,3-6.5c0.7-2.3,0.6-4.9,2.7-6.6c2.3,2-0.6,3.9,0.6,6c3-1.3,5.3-2.9,5-6.8
		c-0.1-1.5-0.6-3.5,0.6-4.8c3.2-3.3,4.3-6.5,0.4-10.1c-0.9-0.9-0.4-2.6,1-2.6c3.2-0.2,6-1.9,9.2-1.8c14,0.2,28,0.9,41.9,0
		c5.5-0.4,10.7,0.2,16,0.3c3.4,0.1,6.7,0.4,9.7-2.6c2.2-2.2,5.7-1.4,8.4,0.2c2.8,1.7,3.4,0.5,3.4-2.2c-0.1-7.3,0.6-14.7-0.2-22
		c-0.6-5.1,3.3-8.4,3.4-13c0-0.7,0.7-1.1,1.5-0.9c1,0.3,1.9,0.8,2,2c0.1,2,0.1,4,0.1,6l0.1-0.2c-0.5,2.3-1,4.5-1.5,6.8
		c-0.4,1.8-0.3,1.7,1.7,3.2c0.5,0.4,1,1.5,0.8,2.2c-1.3,6.1-0.6,12.2-0.1,18.4c0,0.2-0.4,0.4-1.1,1c-2.3-3.6-1.5-8-3.3-12.4
		c-1.2,5.2-0.8,9.6-0.5,14c0.2,2.2,1.8,4.5,4.1,4.2c2.6-0.3,2-2.9,2-4.9c0-5,0-10,0.1-15c0-1.4-0.4-3.1,1.8-4
		c1.6,3.1-0.1,6.6,1.1,9.7c0.4-0.3,0.7-0.5,0.8-0.7c0.7-1.6-0.8-4.8,1.5-4.6c2.5,0.2,1.1,3.3,1,5.1c-0.2,3.7-0.7,7.3-1,10.9
		c-0.2,1.8-0.2,3.7-2.5,4.4c-1.4,0.4-1,1.9-1.3,2.9c-0.4,1,2.3,5.3-2.4,2.7c-0.6-0.3-1.2,1.2-0.8,1.9c1.8,3.4,1.5,7,1.4,10.7
		c0,1.1-0.3,2.6,1.3,2.9c1.7,0.4,2.3-0.9,2.8-2.2c2.1-5.4,4.5-10.7,6.4-16.2c1.2-3.5,2.6-2.9,5.1-0.4c-1.1-6.9-4.6-12.7-3.2-19.6
		c-0.5,0-1,0.1-1.5,0.1c-0.8,6.3-1.6,12.6-2.5,18.8c-0.9-4.8-0.9-9.6-0.2-14.3c0.7-4.9,2.9-9.7-1-14.7c-1.9-2.5,1.3-6.1,2.4-9.1
		c0.5-1.4,1.8,1.5,3.5,1.2c0.7-2.1,0.2-3.6-1.9-4.7c-1.2-0.7-2.1-1.6-2.4-3c-0.2-1.2-0.5-2.6,0.8-3.1s1.3,1.1,1.9,1.8
		c1,1.3,1.9,2.6,4,3c-1.5-6.5-6.6-11.8-6.6-19.2c2.7,1,2.3,3.6,4.7,4.6c0.3-3.1,0.5-5.9,0.8-9c-1.7,0.8-1.6,3.4-4.1,2.3
		c-1.6-0.7-2.5-1.3-3.1-3.2c-1.2-3.9-1.8-7.7-1.1-11.7c0.2-1.4,0.2-2.6-0.9-3.6c-1.1,0-1.7,1-1.7,1.6c0.3,4.5-3.8,6.4-5.3,9.8
		c-0.4,0.9-0.8,2.1-2,1.8c-1.3-0.3-1.6-1.8-1.3-2.9c0.3-1.3,0.9-2.5,1.7-3.6c1.1-1.4,2-3,0.9-4.5c-1.5-2-1.8,1.1-2.8,1
		c-1.9-0.2-3-1.7-3.1-3.3c-0.5-5.8,0.4-11.6-1.4-17.3c-0.2-0.7-0.6-2.3,1.7-1.9c7.9,1.2,16,0.7,23.9,0.3c4.6-0.2,6.3,1.1,7.4,5.5
		c6,23.9,12.4,47.6,18.6,71.4c0.4,1.6,0.9,3.2,1.3,4.8c0.2,1,0.7,2.4,1.8,1.5c3.9-2.9,5.5,0.4,7,2.7c2.5,3.6,5.9,6.3,9.3,9.6
		c0.9-3.2,1.3-5.6-1.8-8.2c-4.7-3.8-7.2-9.1-6.1-15.4c0.2-1.1,0.2-2.4,1.7-2.8c1.5-0.3,2,0.9,2.5,1.9c1,2.1,2,4.2,3,6.3
		c2.1-1.1,1.4-2.8,1.4-4.1c0-22.2-0.1-44.3-0.1-66.5c0-6.6,0-6.7,6.4-6.7c6.1,0,12.3,0.2,18.4,0c3.7-0.2,4.9,2.1,3.9,4.5
		c-1.3,3.1,0,8.5-6.4,8.3c-1.3,0-0.4,4,0.7,5.8c0.9,1.3,2.5,2.1,3.8,3.2c2-0.8,0.3-2.8,1.3-3.9c0.2,0.2,0.5,0.3,0.5,0.5
		c0.2,16.7,0.3,33.5,0.5,50.2c0.1,7,0.1,14,0.1,21c0,2.9,0.5,4.1,3.7,2.2c2.7-1.7,6-1.9,8.5,0.2c4.9,4.2,10.3,2.5,15.5,1.5
		c2.1-0.4,3.8-1.8,5.8,0.4c1,1,2.5,0.5,3.9,0.5c14-0.1,28-0.1,42-0.3c3.3,0,6.1,1.6,9.2,1.8c1.8,0.1,1.8,1.8,0.7,3
		c-3.2,3.3-3.1,6.1,0.3,9.3c1.1,1,0.8,3.4,1,5.2c0.2,1.1-0.5,2.4,0.4,3.4c1.2,1.2,2,3.8,4.1,3c1.9-0.7-0.1-2.6,0.1-4
		c0.1-0.5,0.3-0.9,0.6-1.7c4.2,3.5,2,9.8,6,13.2c2.2-5.3,2.2-5.3,6.2-0.8c1.7,2,3.2,4.1,6.6,3.6c1.7-0.2,4.4,0.9,4.2,3.2
		c-0.2,2.3-1.8,2.9-4.7,2.5c-3.2-0.4-6.8,1.3-8.8,4.5c-1.5,2.5-3.1,2.1-4.9,0.7c-2.2-1.8-0.3-2.6,1-3.7c2.7-2.2,3-4.6-0.1-6.9
		c-2.7-2.1-4.6-7-7.6-6.4c-2.8,0.6-1.8,5.8-3,8.8c-0.4,1-0.2,2.4-1.8,2.9c-1.8-1.3-2.7-3.3-2.6-5.5c0.2-3.2-1.3-2.6-2.9-1.3
		c-2.3,1.8-3.6,4-3.8,7.2c-1.3,15.3,0.1,30.7-0.2,46c-0.1,3.4-5.9,10.2-9.1,9.8c-1.8-0.2-2.4,0.3-2.9,1.6c-1.6,4-4.5,6.9-7.9,9.5
		c-2.4,1.8-3.4,3.7,0.8,4.8c1.2,0.3,2.2,1.4,3.7,1.3c1.1-0.1,2.2,0.8,1.6,1.8c-2.1,3.4-1.3,7-1.5,10.6c-0.1,1.2-0.3,2.5-1.8,2.6
		c-1.3,0-1-1.4-1.4-2.2c-1.3-2.6-4.3-4.5-2.5-8.2c0.4-0.9-0.5-2.8-2.3-2.6c-1.6,0.1-2.3,1.1-2.2,2.7c0.1,1,0.4,2.2,0,2.9
		c-1,1.8,2.3,3.5,0,4.9c-1.9,1.2-4.3,0.8-6.3,0.2c-2.7-0.8-5.6-2-6,2.2c-0.5,3.9,2.6,3.6,5.4,4.6c5.5,1.9,9.4,1.5,14.5-2.2
		c3.4-2.5,9.3-1.9,14.1-2.3c3-0.3,4.3-1.1,3.6-4.3c-0.9-3.7-0.3-6.5,4.4-6.9c4.1-0.4,1.1-3.7,1.9-5.5l-0.2,0.2
		c0.4-0.2,1-0.8,1.2-0.7c9.6,5.2,18.9,3.6,28.2-1c1.7-0.8,3.4-1.5,5.3-0.7c4.7,2.1,9.2-0.1,13.8-0.5c3.3-0.3,1.8-3.2,1.7-5.2
		c-0.1-2.7-1.5-5.7,2.9-6.6c4.1-0.9,6.3-0.2,6.2,4.6c0,4.5,0.9,9,0.9,13.4c-0.1,7,2.4,13.3,4,19.9c0.4,1.8,0.3,2.9-1.3,4.2
		c-3.4,2.7-4.6,6.5-5.5,10.7c-7,33.4-14.1,66.7-21.2,100c-0.7,3.1-0.4,5,3.5,4.3c6.5-1.3,13-2.6,19.6-3.9c0.7-0.1,1.4-0.2,1.9-0.5
		c3.5-2.4,7-4.7,11.7-4.7c2.8,0,5-2,5.8-5.2c0.9-3.2,3-4.7,6.9-3.7c4.3,1.2,5.3-0.2,4.5-4.7c-0.3-1.7,0.7-2.8,1.9-3.8
		c1.4-1.1,2.7-0.4,3.4,0.8c2.9,4.5,6.1,2.8,9.1,0.5c14.2-10.6,26.3-22.7,28.5-41.5c0.4-3,0.7-6.2-1.9-9.2c1.3,5.2-6.1,5.4-5.3,10.2
		c-3.4,0.2-4.1,4.9-7.8,4.6c-1.9-0.1-3.6,0.1-5.2,1.3c-0.9,0.7-2,1.7-3,0.3c-0.7-1-0.6-2.3,0.3-3.2c1.1-1.2,2.5-2.2,3.7-3.3
		c1.9-1.6,4.2-3,2.1-6.1c-0.6-0.8-0.1-1.9,0.4-2.9c0.7-1.4,2.8-2.5,1.3-4.3c-1-1.2-2.5-0.1-3.7,0.2c-1.7,0.4-4,0.3-3.7,3
		c0.3,3.1-0.9,3.2-3.5,2.6c-2.9-0.6-4.8,1.8-6.9,3.3c-3.7,2.8-6.8,6.5-12,6.6c-1.4,0-2,1-2,2.4c0,0.5-0.1,1,0,1.5
		c0.5,5-6.4,3.3-6.7,7.5c-0.2,3.4,1,7.2-4.3,7.9c-2.2,0.3-2.5,2.4-2.1,4.4c0.4,1.7,0.1,3.3-1,4.7c-0.7,1-1.5,1.8-2.9,1.4
		c-1.4-0.4-1.8-1.5-1.7-2.7c0.9-7.8,1.3-15.7,3.1-23.2c1.2-4.7,6.9-5.7,11-6.7c3.7-0.9,3.6-2.1,3.1-4.9c-1.1-6.2-2-12.5-3.1-18.7
		c-0.4-2.3,0.1-4,2.1-5c2.1-1,3.9-3.5,6.6-0.9c2.4,2.3,3.6,0.4,4.2-1.6c0.7-2.3,1.6-3.5,4.2-2.3c2.3,1,2.8-0.7,3.3-2.4
		c0.4-1.5,0-4.1,2.1-3.9c1.8,0.1,1.6,2.7,2,4.2c1.2,4.8,2.4,9.7,3.3,14.6c0.7,3.8,2.4,5.3,6.2,3.6c3.8-1.7,7.5-3.5,10.9-6
		c2.1-1.5,2.6-2.9,0.1-4.6c-5.2-3.5-9-8.8-15.4-10.8c-3.1-1-2.5-4.8-2.8-7.5c-0.3-2.4,1.7-2.8,3.6-3.1c3.3-0.6,2.3-3.1,1.9-5.2
		c-0.6-2.5-1.8-5.4,3-4.2c1,0.3,1.9-0.4,2.2-1.6c0.4-1.8-0.2-3.3-1.4-4.6c-1.1-1.2-2.4-0.6-3.6,0c-9,4.3-18.1,8.5-27.1,12.7
		c-9.4,4.5-8.8,4.4-11.1-6.2c-1.4-6.3,1-8.4,6.1-10.7c18.8-8.4,37.5-17.2,56.2-25.9c2.7-1.2,3.7-1,4.4,2c1.6,6.6,2.1,13.4,4.4,19.8
		c0.7,2.2,0,3.8-2,5c-1.4,0.8-2.5,2.2-3.8,3.2c-3.1,2.3-3.5,4.1,0.2,6.6c6.2,4.2,9.6,11,14.1,16.7c1.6,2,2.8,4.4,5.9,2.2
		c1-0.7,2-0.2,2.3,1s-0.2,2.6-1.4,2.9c-4.9,1.2-3.7,4.3-2.8,7.7c5.9,22.5,4.2,44.3-5.2,65.8c-6.9,15.8-16.8,29.1-31.9,36.9
		c-18.6,9.5-37,19.4-56.5,27c-13.3,5.2-27.3,6.5-41.5,7.6c-20.2,1.6-38-5.7-56.1-12.4c-3.1-1.1-4.3-2.4-1.5-5.2
		c1.5-1.5,2.7-1.5,3.1,0.6c0.6,3.2,3.1,4.2,5.6,5c5.2,1.7,10.6,2.9,15.7,4.8c4.5,1.7,5.2-1.1,5.9-4.1c2.6-11.7,5.2-23.4,7.7-35.1
		c7.2-33.1,14.4-66.3,21.8-99.4c1-4.4-0.4-4.8-4.1-4.3c-18.6,2.8-37.4,4.8-55.8,8.6c-6,1.2-12.1,0.4-17.9,2.1
		c-1.1,0.3-2.1-0.1-2.2-1.3c-0.3-3.9-3.3-1.6-5-2.2c-2.5-0.9-1.9,1.5-2.3,2.7c-1.2,3.3-4.4,3.3-7,3.7c-9.7,1.6-19.4,2.8-29.3,2.3
		c-3.5-0.2-7,0-10.5,0.3c-5.8,0.5-7.8-0.7-9.6-6.2c-6-18.3-9.9-37.2-14.6-55.8c-2-7.9-4-15.8-6.1-23.7c-0.5-2-0.7-4.7-4.1-3.4
		c-0.3,0.1-0.7,0.2-0.9,0c-1.2-0.6-1.7-2-1.5-2.9c1.1-4.3-6.5-6.7-2-11.9c3.9-4.5,4.4-9.5,0.7-15c-2.6-3.8-2.6-8.9-3.3-13.5
		c-1.3-8.8-2.1-17.8-6.6-25.8c-3.2,1.7-3.7,3.7-3,7.4c2,10.8-0.1,21.6-1.1,32.3c-0.5,5.6-1.4,11.2-2.2,16.8c-0.8,6-0.3,6.6,5.8,7.2
		c1.3,0.1,2.7,0.3,3.8,0.8c1.6,0.7,1.8,2.3,1.5,3.9c-0.2,1.6-1.4,1.6-2.6,1.4c-1.5-0.2-3.4-0.7-2.3,2l0,0c-4.2,0.7-3.6-4.1-6.4-5.6
		c-0.8,3.5-2.1,6.8,1.8,9.3c1.3,0.8,1.4,2.2,0.4,2.9c-8.5,6.9-5.2,14.6-1.7,22.4c0.3,0.7,0.9,1.7,0.7,2.2c-1.4,2.7-1.9,4.2,2.3,3.8
		c2.1-0.2,2.2,2.2,2.2,3.8c0,14.5,0,29,0,43.5c0,2.7-1.1,3.8-3.9,3.8c-13.6-0.2-27.3,0.7-40.8-2.3c-3.3-0.7-7.2-0.5-7.8-5.4
		c-0.2-1.8-6-1.7-6.6,0.3c-0.7,2.3-1.7,2-3.6,1.8c-23.9-2.6-47.5-6.8-71.2-10.4c-5.6-0.8-5.8-0.5-4.6,5c8.6,39.5,17.1,79,25.7,118.5
		c1.2,5.4,2.5,10.7,3.8,16c0.7,3.1,2,4.6,5.6,3.3c5.3-1.9,10.8-3.2,16.2-5c1.9-0.7,4.1-1.3,4.9-3.8c0.3-1,0.3-3.1,2.3-2.4
		c1.2,0.4,2.3,1.5,2.6,2.8c0.6,2.2-1.3,2.3-2.5,2.9c-7.1,3.7-14.8,6.2-22.5,8.1c-7.1,1.8-14,4.5-21.4,4.7
		c-15.4,0.4-30.7-0.8-45.7-4.9C91.7,389,76,378.7,59,371.3c-3.6-1.6-7.1-3.6-10.7-5.1c-11.7-4.9-20.1-13.6-26.8-23.8
		c-20.6-31.3-20.3-58.7-13-83.7c0.8-2.7-0.2-3.7-2.5-4.4c-1.7-0.6-3.3-1.6-2.5-3.6c0.9-2.3,2.4-0.6,3.7-0.1c2.2,0.8,2.9-0.9,3.9-2.2
		c4.4-5.2,7.8-11.2,12.5-16.1c1.7-1.7,6.1-1.6,4.8-5.2c-0.8-2.1-3.4-3.5-5.4-5c-2.1-1.6-3.6-3.3-2.9-6.3c1.5-6.4,2.9-12.9,4.2-19.3
		c0.6-2.7,1.5-3.6,4.4-2.2c19.7,9.3,39.5,18.4,59.3,27.5c3,1.4,4.5,3.2,3.4,6.6c-1.2,4,0.1,9.9-3,11.6s-7.3-2.5-11.1-4.2
		c-8.1-3.6-16-7.4-24-11.1c-1.5-0.7-3-1.7-4.4,0.1c-0.9,1.2-1.7,2.5-1.1,4.1c0.7,1.9,2,1.6,3.6,1.5c3.3-0.1,2,2.5,1.6,3.8
		c-1,3.3-1,5.6,3.2,6c1.5,0.1,2.6,1.3,2.2,2.8c-0.6,2.8,0.3,6.8-3.2,7.8c-6.5,1.8-10.1,7.5-15.4,10.8c-2,1.2-1.8,2.7-0.1,3.9
		c3.9,2.9,8.1,5.3,12.7,6.8c3.5,1.1,4.4-1.2,5-3.8c1.1-5,2.3-10.1,3.4-15.1c0.4-1.6,0.5-3.3,1.8-4.3c1.6,0.3,1.5,1.4,1.8,2.3
		c0.2,1,0.6,1.9,0.7,2.9c0.9,4.3,6-1.4,7,3c0.8,3.8,2.4,4.3,5.8,1.7c2.5-1.9,7.9,3.1,7.4,6.7c-0.9,6.3-2.1,12.5-3,18.7
		c-0.4,2.5-0.8,4.2,3.3,4.8c8.1,1.2,10.8,4.8,11.9,13.2c0.7,5.1,1.4,10.2,2,15.4c0.2,1.6,0.6,3.7-1.7,4.1c-2.4,0.5-3.5-1.7-3.5-3.3
		c0-4-0.1-7.6-5.3-8.4c-1.2-0.2-1.5-2.1-1.3-3.5c0.6-3.4,0.2-5.9-4-6.5c-1.5-0.2-2.8-1.7-2.7-3.3c0.3-3.7-1.2-4.9-4.7-5.1
		c-2.9-0.2-4.8-2.7-7.2-4.3c-3.4-2.3-5.8-6.7-11.1-4.9c-1.4,0.5-1.7-1.2-1.6-2.5c0.3-2.5-1.3-3.2-3.3-3.4c-1.4-0.2-2.9-1.6-4.2-0.2
		c-1.5,1.6,0.5,2.6,1.1,3.8c0.2,0.4,0.8,1,0.7,1.3c-2.6,6,2.8,7.9,5.6,11.1c0.9,1,1.6,2.3,0.5,3.6c-1,1.1-2.1,0.2-3.1-0.4
		c-3.4-2.2-8.4-0.8-11.2-4.8c-0.4-0.5-1.6-0.8-1.7-1.9c-0.1-2.1-0.2-3.6-3.1-3.9c-2.7-0.3-0.3-4-2.6-5.7c-2.3,3.3-2.1,6.9-1.5,10.3
		c3.3,19.4,15.7,32,31.5,42.2c2.7,1.7,3.8-0.2,5.4-1.5c1.1-1,2.2-3.1,4.2-1.5c1.6,1.3,2.3,2.5,1.2,5c-1.6,3.8,2.2,4.3,4.3,3.6
		c5.1-1.7,7,0.7,8.3,4.9c1.2,3.9,5.2,4.6,8,4.5s4,0.8,5.8,2.2c2.8,2.2,6.3,3,9.7,3.6c5.1,0.9,10.1,1.9,15.2,2.7
		c2.9,0.5,4-0.5,3.3-3.6c-7.4-34.5-14.7-69-22.1-103.5c-0.5-2.5-1.4-4.8-3.5-6.4c-3-2.3-3.5-5.3-2.2-8.6c4.1-9.8,3.4-20.2,4.3-30.4
		c0.2-2.6-0.3-5.7,4.1-5.1c3.5,0.5,6.4,1.2,5.1,5.8c-1.3,4.8,0.4,7,5.6,7.1c3.4,0,6.8,1.3,10.3-0.2c2.5-1.1,4.9,0.7,7.1,1.7
		c5.7,2.7,11.4,3.5,17.8,2.6c3.6-0.5,6.3-1.9,9.3-3.1L165.8,212.6z M204.7,150.9c0.3-4.1-1.8-6.9-4.3-9.6c-1.4-1.5-2.3-3.3-1.7-5.5
		c0.6-1.9,0.7-3.7-1.2-4.8c-1.9-1.1-3.9-0.4-5.6,0.7c-4.1,2.6-4.6,9.9-1,13.9c2.5,2.8,6,5.4,2.2,9.7c-0.6,0.7-0.3,1.6,0.6,2
		c4.4,2.2,7.7,6.5,8.7,10.9c0.6,2.7,2.4,4.9,5.3,4c3.7-1.1,5.9,0.7,8.4,2.9c3.8,3.3,6.6,7.6,11.4,10.1c4.6,2.4,7.8,7.3,11.7,11
		c5.3,5,4.9,6.6-0.6,11.5c-2.8,2.5-0.9,9.9,2.8,11.1c5.9,2,9.2-0.6,9.3-8.1c0.3-21.1,0.3-42.3,0.5-63.4c0-2.6-0.4-4.3-3.5-4
		c-2.5,0.2-4.2-0.4-4.3-3.4c-0.1-1.1-1.1-2.7-2.3-1.3c-4.5,5.4-10.7,3.8-16.2,3.9c-4.5,0.1-6.4-3.6-4.6-7.7c0.5-1.1,0.9-2.5-0.4-3.1
		c-1.7-0.7-1.8,0.8-1.9,2c-0.1,1.4-0.8,2.2-2.2,2c-0.9-0.1-1.6-0.4-1.6-1.5c0-1,1.1-2.8-1-2.4c-1.6,0.3-2.3,1.9-1.7,3.6
		c1.1,3.2-1,3.2-3.2,4.1c-2.3,1-3-2-4.8-1.3c1.2,4.5,3.2,5.2,7.2,2.3c1.2-0.9,2.3-1.4,3.6-0.8c0.9,0.4,0.9,1.4,0.2,2.1
		C211.2,144.8,208.1,147.7,204.7,150.9z M398.1,138.3c-5.1,2.7-6.4,1.9-7.6-4.1c-0.2-1.2-0.7-2.4-2.1-2.4c-1.3,0-0.8,1.2-0.7,1.9
		c0.2,1.2-0.2,1.9-1.5,2c-1.4,0.1-2.2-0.3-2.4-1.8c-0.2-1.3-0.3-3.2-2.2-2c-1.5,0.9-0.4,2.4,0.5,3.4c1.7,1.9,1.3,3.4-0.7,5
		c-3.7,3-15.4,3.2-19.1-0.1c-2.1-1.9-3.6-3.6-4.1,0.9c-0.2,1.4-1,2.3-2.3,2.1c-5.5-0.8-5.1,2.7-5.2,6.5c-0.3,16.6,0.7,33.2-0.6,49.8
		c-0.4,4.9,0.2,10,0.9,14.9c0.3,2.2,1,5.3,4.4,5.1c3.1-0.2,6.5-0.2,7.5-4.3c0.7-2.9,2.6-5.6-1.4-8.2c-4.3-2.8-4.4-5.8-0.8-9.4
		c4.3-4.3,8.8-8.3,13.3-12.4c0.8-0.8,2.1-2.1,2.8-1.9c2.6,0.9,2.4-1.3,3.5-2.3c4.2-3.9,6.8-10.8,14.8-8.6c2,0.6,3.3-1.5,4-3.2
		c3-7.3,3-7.3,9.4-11.9c1.1-0.8,0.7-1.8-0.1-2.6c-2.9-2.8-1.3-5.6,0.9-7.3c4-3.2,4.1-7.1,3.3-11.4c-0.7-3.7-3.4-5.4-6.8-5.3
		c-3.6,0.1-3.3,3.1-2.9,5.6c0.4,2.2-0.8,3.7-2,5.4c-1.9,2.7-4.5,5.2-3.9,10.1c-3-3.3-5.3-5.6-7.4-8.1c-0.9-1.1-3.9-1.5-2.1-3.6
		c1.3-1.5,2.8-0.2,4.2,1C394.7,143.7,397.6,142.3,398.1,138.3z M305.5,146.3c-1.2-4.4,1.1-9.1-1.5-13.1c-0.6-1-0.4-3.2-2.4-2.5
		c-1.5,0.6-3.1,1.9-2.7,3.8c1.5,6.5,3.1,13,6.1,19.3c1.9-1.9,0.2-3.9,1.6-5.3c2.3,0.4,1.5,2.5,2.2,3.8c1.6,3.1-2.7,4.8-1.8,7.1
		c2.3,5.6,3.8,11.4,4.3,17.9c3.2-2,2-4.9,2.9-6.9c2.4-0.5,0.7,4.6,3.4,2.5c1.8-1.4,1.3-4-0.5-5.8c-0.7-0.7-1.6-1.2-2.4-1.7
		c-1.1-0.7-1.5-1.6-1.6-2.9c-0.2-4.5-0.6-9-0.8-13.4c-0.1-1.5,0.3-3.4,1.9-3.7c1.5-0.3,1.8,1.6,2.4,2.7c2.5,4.3,2.1,9,1.9,13.6
		c-0.1,1.7,0.5,3.8,2.6,3.5c2-0.3,2.3-2.5,1.7-4.1c-1.7-4.5-1.4-9.2-1.4-13.8c-0.1-11.3,0-22.7,0-34c0-1.8,0.4-3.7-0.6-5.3
		c-7.3,3.5-7.2,3.4-11.1-4.2c-1.1-2.2-1.6-4.8-3.9-6.7c-0.6,1.6-0.2,2.7,0.1,3.8c0.8,3.7,3.1,6.4,5,9.5c2,3.2,2.2,7.8-1.7,11.4
		c-2.5,2.3-2,2.9,1.3,4.3c0.8,0.3,1.6,1.4,1.7,2.3c0.5,3.8,0.9,7.6,1.1,11.4c0.1,1-0.5,2.4-1.7,1.2c-2.4-2.4-2.4-0.1-3.1,1.3
		C308,143.9,307.7,145.7,305.5,146.3z M209.5,185.8c-0.1-2-0.4-3.6-0.3-5.2c0.1-2.2-0.4-4-2.7-4.6c-2.4-0.6-4.2,0.4-5.5,2.3
		c-3.1,4.4-1.8,7.5,2.9,9.6c1.6,0.7,2.5,3.4,4.4,2.5C210,189.5,208.8,187,209.5,185.8z M393.8,190.9c1.9-1.5,3.8-3.1,5.8-4.4
		c1.7-1.1,3.6-1.8,2.7-4.5c-0.9-2.5-1.6-5.3-4.6-6c-2.2-0.6-4.8-0.3-4.9,2.6C392.7,182.5,391,186.7,393.8,190.9z M187.8,159.1
		c-0.5-1.2-0.6-1.8-0.9-2.1c-0.6-0.4-1.4-0.4-1.7,0.3c-1.1,2.7-4,3.3-5.7,5.3c-1.9,2.3-5.1,4.1-2.9,7.9c0.5,0.9,1.2,1.7,2.4,1.3
		c1-0.3,0.9-1.3,0.6-2.1c-1.3-3.1,0.8-4.5,2.8-6.1C184.2,162.2,186.1,160.5,187.8,159.1z M425.5,167.7c0-1.4-0.7-2.2-1.6-3.3
		c-2-2.4-4.8-3.8-6.8-6.2c-0.7-0.8-1.5-2.3-2.7-1.1c-1.2,1.1,0.1,2.1,0.9,2.8c0.8,0.8,1.9,1.4,2.6,2.2c2.1,2.3,6.3,3.7,4,8.3
		c-0.3,0.6,0.1,1.4,0.8,1.5c0.6,0.1,1.3-0.3,1.7-0.7C425.6,170.4,425.3,169,425.5,167.7z M392.9,135.6c4.6-2,9-3.1,8.9-9.1
		C397.4,128,394,130.1,392.9,135.6z M217.7,108.3c-1.6,0.7-1.1,2-1.3,3.1c-0.5,3.1,1.6,3.4,3.8,3.8c1.5,0.3,2.6,0.5,3-1.3
		c0.6-2.6-1.3-2.9-3-3.6C219.2,110,218.5,109,217.7,108.3z M199.7,126.4c1.3,4.9,1.3,4.9,8.2,8.5C207.8,130.8,206.2,129,199.7,126.4
		z M384.9,108.5c-2.3,0.2-3,2.3-4.8,2.4s-1.9,1.6-1.6,3c0.4,1.6,1.3,1.7,2.9,1.5C386.3,114.9,385.5,111.9,384.9,108.5z M384.1,184.4
		c-0.5,1.7-0.5,3,1.5,2.8c1.7-0.2,4.2-0.3,4.4-2.2c0.3-2.5-2.4-4.5-4.3-4.6C383.2,180.2,385.1,183.4,384.1,184.4z M216.6,180
		c-1.7,1.8-5.5,1.8-4.9,5.3c0.3,1.8,3.1,2.8,4.5,2C219.4,185.4,216.6,182.6,216.6,180z M148.3,390.2c8.3-0.1,9.6-1.1,9.5-6.7
		C154.8,385.6,152.1,387.5,148.3,390.2z M444.1,383.7c-0.9,5.4,1.5,7.1,8.5,6.1C449.6,387.6,447,385.7,444.1,383.7z M209.8,257
		c0.9-0.5,3,0.1,2.3-1.6c-0.9-2.3-3.7-2.4-5.9-2.9c-1.2-0.3-2.7,0.2-2.5,1.5C204.3,257.6,207.8,255.6,209.8,257z M391.3,256.8
		c1.7-1.1,5,0.7,6-2.5c0.4-1.4-1-2.1-2.2-1.8c-2.3,0.5-5.1,0.6-6.2,3.1C388.4,256.6,389.9,256.9,391.3,256.8z M227.6,127.3
		c-1-1.4-0.3-4.2-2.9-4.3c-1.7-0.1-2.4,1.7-2.6,3.1c-0.3,2.2,1.7,2.6,3.2,3C226.6,129.5,227.6,129.1,227.6,127.3z M340.4,54.9
		c0.9,1.7,1.6,2.8,2.1,4c0.7,1.4-0.1,3.5,1.9,4.1c0.4,0.1,1.2-0.5,1.5-0.9c1.1-2-0.7-3.3-1.2-5C344.1,55.4,342.5,55.4,340.4,54.9z
		 M379.3,125.2c0-0.9-0.9-2.3-2.5-2.1c-2.5,0.3-2.3,2.9-2.8,4.6c-0.4,1.2,0.8,1.7,1.8,1.5C377.6,128.9,379.5,128.6,379.3,125.2z
		 M331.8,220.9c1.3-1.6,2.1-2.4,2.6-3.4c0.7-1.4,0.5-2.9-0.4-4.2c-0.3-0.5-1.1-0.8-1.7-0.3c-1.2,1-0.8,2.4-0.7,3.6
		C331.6,217.7,331.7,218.8,331.8,220.9z"/>
	<path class="st0" d="M452.3,122.5c-1.1-1.9-2.4-3.8-3.3-5.8c-0.5-1.1-0.6-1.9-2.2-2.2c-4.3-0.7-4.2-3.4-2.6-6.6
		c2.6-5.3,5-10.7,0.8-16.3c-0.7-1-0.2-2.2-0.3-3.3c-0.9-6.9-0.2-14.3-4.8-20.3c-1-1.3-0.8-2.5,0.6-3.4c1.3-0.9,2.3-0.2,2.8,1
		c0.9,2,2.5,3.6,2.5,5.9c-0.1,6.8,3.2,13.1,3,20c-0.1,3.7,2.5,0.8,3.7,0.9c0.7,2.4-2.2,3.6-1.1,6.1c3-1.6,1.5-6.1,5.9-7.8
		c-2.8,10.9-7.2,20.9-3.1,31.9C453.5,122.5,452.9,122.5,452.3,122.5z"/>
	<path class="st0" d="M147.8,122.1c3.6-10.8-0.5-20.7-3.3-31.3c4.3,1.5,3,5.7,5.6,7.5c1.3-2.3-1.5-3.6-1.1-5.6
		c4,0.8,3.9,0.8,4.2-3.2c0.5-7.7,2.2-15.3,4.6-22.6c0.4-1.1,0.6-2.9,2.5-2.6c0.7,0.1,1.5,0.7,1.9,1.4c0.9,1.6-0.7,2.1-1.5,3.1
		c-2.8,3.4-1.9,7.8-2.9,11.8c-1.3,5.3-1,10.8-3.2,16.1c-1.5,3.6,1,7.7,2.7,11.2s1.9,6.1-2.8,6.7c-1.3,0.2-1.4,0.8-1.8,1.8
		c-0.9,2.1-2.1,4-3.1,6C148.9,122.3,148.4,122.2,147.8,122.1z"/>
	<path class="st0" d="M132.8,199.1c-0.5,0-1-0.2-1.4-0.1c-1.6,0.2-2.5,3.7-4.5,1.4c-1.8-2.1,0.8-3,2-4.2c1.1-1.1-0.1-2-0.3-3.1
		c-0.5-3.4-1.2-7,2.1-9.6c0.7-0.6,1.3-1.8,2.4-1.1c1.2,0.7,1.2,2.2,0.4,3c-2.9,2.9,0,4.5,1.1,6.7c-0.2-2.8,0.8-5,1.9-7.5
		c0.9-2.1,0.8-4.8-1.7-6.7c-4-3.1-4.8-10.8-1.4-14.5c1.4-1.5-0.3-2.9,1.1-4.3c3,1.7,4.9,3,1.7,6.9c-2.3,2.8-1.6,6.7,0.7,9.4
		c3.1,3.8,3.3,8.5,4.5,12.9c0.9,3.4-0.4,5.3-3.3,6.7C136.1,196,133.8,196.8,132.8,199.1L132.8,199.1z"/>
	<path class="st0" d="M467.5,198.6c0.6-2.6-1.9-2.4-3.1-2.9c-3.7-1.8-5.3-4.5-4-8.3c1.2-3.9,1.5-8,4.1-11.5s3.3-7.5-0.1-11.1
		c-1.2-1.3-0.8-2.4,0-3.5c0.6-0.8,1.1-1.9,2.2-1.8c2,0.2,0.4,2.1,1.1,2.7c4.5,3.6,3.4,9.4,1.4,12c-4.2,5.7-4.2,11.1-2.6,17.2
		c0,0.1,0.2,0.2,0.6,0.7c1.6-2,3.3-3.7,1.1-6.4c-0.8-1-0.9-2.3,0.4-3c1.2-0.7,1.6,0.6,2.3,1.2c2.2,1.8,2.5,4.1,2.5,6.7
		c-0.1,2.8-2.3,6,1.5,8.1c0.6,0.3,0.3,1.6-0.4,2.2c-0.8,0.7-1.6,0.4-2.2-0.2C471.1,199,469.4,198.4,467.5,198.6L467.5,198.6z"/>
	<path class="st0" d="M279.4,179.5c2.1,1.9,2.4,4.1,1.6,6.7c-0.4,1.2-0.8,3,1.2,3.1c1.3,0.1,2.1-1.4,2.4-2.8
		c0.4-2.2-1.6-4.4,0.4-7.3c1,3.3,4.2,4.1,5.6,6.7c0.3,0.6,0.5,1,1.4,0.9c2.6-0.1,3.3,0.7,3.7,3c0.5,2.9-1.5,3.7-3.5,4.6
		c-1.8,0.8-2-0.8-2.3-1.7c-0.6-1.5-1-3.2-1.5-4.7c-0.2-0.8-0.5-1.7-1.6-1.5c-0.8,0.1-0.9,0.9-0.9,1.5c-0.3,3.9-0.4,7.6-5.4,9.1
		c-1.7,0.5-1.4,4.1-1.5,6.5c-0.1,1.5,0.5,4-1.7,4c-1.8,0-0.7-2.6-1.3-3.6c-2.9-4.6-0.3-7.9,1.4-12
		C278.9,188.3,279.6,183.8,279.4,179.5C279.4,179.4,279.4,179.5,279.4,179.5z"/>
	<path class="st0" d="M59.8,296.5c1.5,3.5,4.5,4.9,2.8,8.5c-2.4,5-2.2,5.2-6.2,1.4c-1.5-1.4-3.5-0.3-5-1.7c-1.3-1.2-2.7-2.3-1.5-4.1
		c1-1.5,2.4-1.2,3.9-0.3C58.8,303.5,58.9,303.5,59.8,296.5z"/>
	<path class="st0" d="M542.9,303.5c2.1-0.4,3.4-1.6,4.7-2.9c1.2-1.2,2.6-1.6,3.9-0.3c1.3,1.4,0.6,2.9-0.7,3.8
		c-2.6,1.8-6,2.1-7.8,5.2c-0.4,0.7-2.2-0.1-2.4-1c-0.6-2.3-3.1-4.1-1.8-6.8c0.6-1.3,1.7-2.4,2.6-3.7
		C543.8,299.2,541.6,301.6,542.9,303.5z"/>
	<path class="st0" d="M136,131.8c-1.5-2.1,1.3-5.1-2.5-5.6c-0.9-0.1-1-1.6-0.3-2c2.1-0.9,3.9-3,6.2-2.6c1.8,0.3,4.1,1.6,4.7,3.1
		c0.8,1.8-1.7,2.8-3.2,3.8C139.4,129.6,137.7,130.6,136,131.8z"/>
	<path class="st0" d="M462.5,121.3c2.1,1,3.9,1.7,5.6,2.7c1.1,0.6,0.9,1.7-0.2,2.3c-0.8,0.4-2.1,0.1-2.1,1.5c0,1.2,1.9,4.1-0.8,3.2
		c-2.8-0.9-6.9-2.4-7.3-5.9C457.3,123,460.9,122.7,462.5,121.3z"/>
	<path class="st0" d="M435.7,214l0.2-0.2c-2.8,0.9-5.6,0.1-8.3-0.2c-1.4-0.1-2.8-0.5-2.8-2.2c0-1.5,1.4-1.6,2.6-1.7
		c1-0.1,2-0.3,3-0.5C436.3,208.1,436.3,208.1,435.7,214z"/>
	<path class="st0" d="M165.9,212.8c-1.1-5.2-1-5.4,4-3.7c2.3,0.8,5.5-0.6,6.9,2.5c0.1,0.3-0.5,1.5-0.9,1.5
		c-3.4,0.4-6.9,2.8-10.2-0.4C165.8,212.6,165.9,212.8,165.9,212.8z"/>
	<path class="st0" d="M461.7,160.6c0.2,2.5,0.9,5-1.7,5c-2.1,0-1.6-2.6-1.6-4.1c0-2.8-0.8-5.2-1.9-7.7c-0.6-1.4-0.7-3.3,1.1-3.8
		c1.8-0.4,2.1,1.4,2,2.7C459.3,155.9,463,158,461.7,160.6z"/>
	<path class="st0" d="M139.8,161c-0.6-3,2.5-6,2.4-9.7c0-0.8,0.6-1.7,1.6-1.4c1.1,0.3,1.8,1.5,1.4,2.3c-1.6,4-2,8.3-2.6,12.5
		c-0.1,0.6-0.7,1.2-1.5,0.9C139.4,164.9,139.7,163.3,139.8,161z"/>
	<path class="st0" d="M288.3,226.5c-0.4,2.2,2.1,6.9-1.4,7.4c-2.1,0.3-0.7-5.1-1.2-7.9c-0.3-2-0.3-4-0.3-6c0-1.2-0.1-2.7,1.4-2.8
		c1.6-0.1,1.5,1.5,1.5,2.6C288.3,221.9,288.3,223.8,288.3,226.5z"/>
	<path class="st0" d="M285.9,214c-1.8-3.5-2.6-6.4-2.7-9.5c0-0.8,0.1-1.8,1.1-1.9s1.4,0.8,1.5,1.6C286,207.1,288.1,209.9,285.9,214z
		"/>
	<path class="st0" d="M190.8,383.9c-1.8-0.2-3.7-0.1-3.5-2.2c0.2-2.8,2.6-1.9,4.2-2.1c1.4-0.2,2.9-0.1,2.9,1.7
		C194.5,384,192.2,383.5,190.8,383.9z"/>
	<path class="st0" d="M251.7,41c1.6,3.4,3.9,6.6,2.1,11.1C249.9,48.7,251.3,44.7,251.7,41z"/>
	<path class="st0" d="M293.3,233.6c-2.3-3.3-1.7-6.5-1.3-9.7c0.1-0.5,0.8-0.9,1.2-1.3c0.4,0.4,1.2,0.8,1.3,1.3
		C294.6,227,295.6,230.3,293.3,233.6z"/>
	<path class="st0" d="M312,62.7c2.1,0.7,3.6,1.7,3.6,4.1c0,1.3-0.5,2.5-1.9,2.4c-2.4-0.2-3.5-1.7-3.4-4
		C310.3,64,310.4,62.8,312,62.7z"/>
	<path class="st0" d="M257.9,68.2c1-0.8,2-1.7,3.2-2.7c1.5,1.6,2.2,3.6,0.9,5.9c-0.6,1-1.9,2.5-3.1,1.7c-1.8-1.2-0.7-3.3-0.8-5.1
		C258,68.1,257.9,68.2,257.9,68.2z"/>
	<path class="st0" d="M165.1,199.6c-1.6-0.3-1.9-1.3-1.5-2.3c0.7-1.9,0.9-4.5,3.9-4.2c1.2,0.1,2.4,1.2,1.9,2.3
		C168.5,197.4,166.7,198.6,165.1,199.6z"/>
	<path class="st0" d="M410.6,379.6c1.6,0.1,3.7-0.6,3.7,2c0,2.3-2,2.4-3.6,2.2c-1.6-0.1-3.6,0-3.5-2.5
		C407.3,378.9,409.2,379.7,410.6,379.6z"/>
	<path class="st0" d="M434.8,193.1c2.4,0.4,2.7,2.5,3,4.4c0.2,1-0.1,2.4-1.4,1.9c-2-0.7-3.9-2-4.2-4.4
		C432.2,193.6,433.5,193.2,434.8,193.1z"/>
	<path class="st0" d="M467.5,198.5c0.3,0.8,0.8,1.5,0.9,2.3c0.2,1.9,1.2,3.9-0.7,5.5c-0.6,0.5-1.4,0.2-1.6-0.4
		c-0.9-2.2-1.6-4.4,0.5-6.3C466.9,199.2,467.2,198.9,467.5,198.5C467.5,198.6,467.5,198.5,467.5,198.5z"/>
	<path class="st0" d="M123.5,125.3c0-1.5,0.8-2.3,2.1-2.4c1.8,0,3.4,0.5,3.8,2.5c0.3,1.4-0.7,2.1-2.1,2.1
		C125.6,127.6,123.9,127.3,123.5,125.3z"/>
	<path class="st0" d="M478.1,125.1c-0.5,2.1-2,2.5-3.7,2.4c-1.3,0-2.3-0.7-2-2.1c0.3-1.7,1.6-2.4,3.2-2.5
		C477,122.8,478,123.6,478.1,125.1z"/>
	<path class="st0" d="M132.6,199.2c0.8,0.1,1.8,0,2.4,0.4c2.2,1.4,1.4,3.4,0.9,5.4c-0.2,0.9-0.8,1.8-1.7,1.4
		c-1.9-0.9-1.3-2.8-1.1-4.4c0.1-1,0.4-2-0.4-2.9C132.8,199.1,132.6,199.2,132.6,199.2z"/>
	<path class="st0" d="M467.5,147.6c0,1.2-0.6,1.7-1.6,1.4c-1.4-0.5-3.6,0.2-3.7-2.3c0-1,0-2.4,1.3-2.2
		C465.4,144.8,466.7,146,467.5,147.6z"/>
	<path class="st0" d="M137.9,144.4c1.5,0.1,1.7,1.1,1.7,2.1c-0.1,2.4-2.2,2.1-3.6,2.4c-1.3,0.3-2-0.4-1.6-1.6
		C134.9,145.7,136.4,144.9,137.9,144.4z"/>
	<path class="st0" d="M176.8,348.4c-0.2,1.7-0.7,3.3-2.7,3.5c-1.2,0.1-1.8-0.8-1.6-1.9c0.2-1.8,1.2-3.2,2.9-3.6
		C176.9,346,176.7,347.4,176.8,348.4z"/>
	<path class="st0" d="M429.1,349.5c0.2,1.3-0.3,2.3-1.4,2.3c-2.2,0.1-2.6-1.7-2.9-3.3c-0.2-0.9,0-2.3,1.3-2.2
		C427.9,346.5,428.5,348.1,429.1,349.5z"/>
	<path class="st0" d="M209.9,168.5c-2.4-2.7-1.7-5-0.2-7c1.9-2.3,1.5-4.5,0.6-6.9c-0.5-1.2-2.2-2.7-0.3-3.8c1.6-0.9,3,0.7,4.5,1.3
		c1.9,0.7,1.9,2.1,1.1,3.6c-1.4,2.6-3,5.1-4.3,7.8C210.8,165,210.5,166.6,209.9,168.5z"/>
	<path class="st0" d="M391.7,168.7c-1-5.1-3.4-8.6-5.5-12.3c-0.7-1.2-1.5-2.5-0.2-3.5c1.5-1.2,3.2-2.5,5.4-2.1
		c1.1,0.2,1.4,1.3,0.7,2.3c-2.1,3.3-1.9,6.4,0.4,9.6C393.6,164.1,393.5,166.1,391.7,168.7z"/>
</g>
</svg>
