<?xml version="1.0" encoding="utf-8"?>
<!-- Generator: Adobe Illustrator 23.0.3, SVG Export Plug-In . SVG Version: 6.00 Build 0)  -->
<svg version="1.1" id="Calque_1" xmlns="http://www.w3.org/2000/svg" xmlns:xlink="http://www.w3.org/1999/xlink" x="0px" y="0px"
	 viewBox="0 0 2500 2886" style="enable-background:new 0 0 2500 2886;" xml:space="preserve">
<style type="text/css">
	.st0{fill:#FF0000;}
</style>
<g>
	<path class="st0" d="M1778.4,824.7c14.3-4.1,25.4-10.6,35.6-18.6c21.4-16.5,40-36.1,59.3-54.9c31-30.2,61.6-60.8,90.6-92.9
		c14.5-16,29.2-31.8,41.6-49.7c2.7-3.9,5.1-7.8,6.4-12.3c1.6-5.8,0.4-8.7-4.9-11.5c-4.1-2.2-8.4-4-13.2-4.3
		c-8.9-0.5-17.6-2.9-26.6-3c-6.8-0.1-7.3-1-7.6-7.6c-0.9-18.2-0.9-18.2,17.1-18.2c62.3,0,124.6,0,187,0c2.3,0,4.7,0.1,7,0
		c3.8-0.2,5.7,1.2,5.2,5.2c0,0.3,0,0.7,0,1c0.8,18.9,0.9,18.9-17.6,20.3c-41.2,3-76.7,18.8-107.9,45.9
		c-27.7,24.1-53.8,49.7-80.1,75.1c-33.2,32.2-65.8,65-98.7,97.5c-7.6,7.5-7.6,7.6-1,15.4c43.6,51.6,87.7,102.7,133,152.7
		c21.7,23.9,43.2,47.9,65,71.7c17.7,19.4,36.1,38.1,57.6,53.6c15.4,11.1,32.6,17.6,51.4,20c14.2,1.9,14.3,1.9,14.2,15.8
		c-0.1,13.8,2.1,12.3-12,12.3c-38.3,0.1-76.6-0.1-115,0.1c-5.8,0-9.8-1.6-13.7-6.1c-28.8-33.1-58-65.8-86.9-98.8
		c-37.5-42.8-74.8-85.6-112.1-128.5c-12.2-14-23.9-28.5-37.1-41.7c-7.6-7.7-16.3-13.6-27.6-14.4c-6.5-0.5-9,1-9,7.9
		c0.3,60.7-0.2,121.3,0.5,181.9c0.2,12.7,0.8,25.8,4.5,38.4c4,13.8,11.6,23.5,25.9,27.5c9,2.6,18,4.8,27.2,5.3
		c7,0.4,13.7,2.7,20.7,2.1c3.5-0.3,5.1,1.6,5.4,5.4c1.7,20.8,1.8,20.8-18.5,20.8c-42.3,0-84.6,0-127,0c-2.3,0-4.7-0.1-7,0
		c-3,0.1-4.1-1.4-4-4.3c0.1-2.7,0-5.3,0-8c0-157.3,0-314.6,0-471.9c0-14.6-0.3-29.2-3.7-43.6c-3.3-13.9-11.4-22.9-25-27
		c-12.8-3.9-25.9-5.2-39.2-5.9c-2-0.1-4.1,0.2-6-0.3c-3-0.7-5.7-2-5.4-5.9c0-0.3,0-0.7,0-1c-1.4-18.7-1.4-18.7,17.7-18.7
		c40.7,0,81.3,0,122,0c2.3,0,4.7,0.1,7,0c3.5-0.2,4.7,1.6,4.5,4.9c-0.1,1.3,0,2.7,0,4c0.2,67.3,0.4,134.6,0.6,201.9
		C1778.4,782.8,1778.4,803.1,1778.4,824.7z"/>
</g>
</svg>
