<?xml version="1.0" encoding="utf-8"?>
<!-- Generator: Adobe Illustrator 25.4.1, SVG Export Plug-In . SVG Version: 6.00 Build 0)  -->
<svg version="1.1" id="Calque_1" xmlns="http://www.w3.org/2000/svg" xmlns:xlink="http://www.w3.org/1999/xlink" x="0px" y="0px"
	 viewBox="0 0 1046 650.1" style="enable-background:new 0 0 1046 650.1;" xml:space="preserve">
<g>
	<path d="M1046,538c-35,0-70-0.2-105,0c-6.5,0-10.6-2.3-14.6-7.4c-20.3-26.5-41-52.6-61.6-78.9c-12.5-15.9-24.8-32-37.5-47.8
		c-13.5-16.7-27.3-33-41-49.5c-0.8-1-1.8-1.7-3.6-3.5c0,2.9,0,4.7,0,6.4c0,54.3-0.4,108.7,0.3,163c0.2,16.1,7.2,30.6,16.9,43.5
		c19.3,25.5,45.5,40.2,76.4,46.5c14,2.9,28.5,3.6,43.3,5.4c0,10.6,0,22.1,0,34.4c-2,0-4,0-5.9,0c-62.3,0-124.7,0-187,0.1
		c-3.8,0-6.2-1-8.7-4.1c-28.2-35.1-56.5-70.1-85-104.9c-21.1-25.8-42.5-51.5-63.8-77.2c-15.1-18.3-30.1-36.8-45.3-55
		c-11.7-14-23.8-27.7-35.6-41.7c-17.6-21-35.1-42.1-52.7-63.1c-14.1-17-28.2-34-42.4-50.9c-15.8-19-31.7-38-47.5-57
		c-15.9-19.1-31.9-38.3-47.8-57.4c-5.7-6.8-11.4-13.6-17.1-20.4c-0.6,0.1-1.3,0.3-1.9,0.4c0,7.4,0,14.8,0,22.1
		c-0.1,117.7-0.1,235.3-0.1,353c0,4-1.2,5.2-5.1,5.1c-11.5-0.4-10,1.6-10-10.2c-0.1-44.2,0-88.3,0-132.5c0-1.6,0-3.2,0-6.3
		c-5.7,6.8-10.7,12.4-15.4,18.2c-17,20.9-34.1,41.7-50.8,62.7c-25.5,32.1-50.9,64.3-75.7,97c-5.4,7.1-11,9.5-19.6,9.4
		C68,536.7,34,537,0,537c0-3.3,0-6.7,0-10c7.3-0.2,14.6-0.1,21.9-0.6c3.1-0.2,6.3-0.8,9.1-2C54.2,514,74,498.5,90.8,479.8
		c22.7-25.4,44.1-51.9,65.6-78.2c22.6-27.6,44.6-55.8,67-83.5c2.8-3.4,2.5-5.6-0.6-8.4c-7.6-7-15-14.2-22.4-21.3
		c-25.8-25-51.5-50.1-77.4-75c-17.6-16.9-35.2-33.9-56.7-45.9c-8.7-4.8-17.1-10.9-28.1-10.3c-6.1,0.4-6.3-0.2-5.6-6.6
		c0.3-0.1,0.6-0.4,0.9-0.4c37.5-0.1,75-0.1,112.5,0c1,0,3,2,2.9,2.7c-0.4,1.6-1.5,3.5-2.9,4.1c-1.5,0.7-3.6,0.3-5.4,0.2
		c-6.5-0.6-10.8,2.8-14.1,7.8c-4,6-4.9,12.6-3.6,19.6c3.1,16.8,11,31.3,22.4,43.7c9.2,10,19.1,19.5,28.9,28.9
		c25.7,24.8,51.6,49.6,77.5,74.3c3.3,3.1,7,5.8,11.4,9.5c0.2-3.4,0.3-5.5,0.3-7.6c0-66.3,0.1-132.7-0.2-199c0-7.2-1.3-14.6-3.4-21.4
		c-7.9-26-25.4-44.2-48.4-57.6c-22.6-13.2-47.2-19-73.2-19.6c-3.9-0.1-7.8,0-12.3,0c0-12.5,0-24.2,0-35.8c66.7,0,133.3,0,200,0
		c5.5,7.2,10.8,14.5,16.5,21.6c22.4,27.8,44.9,55.5,67.5,83.2c17.6,21.6,35.5,43.1,53.3,64.5c20,24.2,40,48.4,60.1,72.5
		c15.4,18.5,31.2,36.7,46.6,55.2c21.2,25.3,42.2,50.8,63.3,76.2c16.9,20.3,33.8,40.6,50.7,60.9c22.7,27.3,45.4,54.7,68.1,82
		c4.3,5.2,8.8,10.3,14.1,16.5c0.3-3.4,0.7-5.7,0.7-8.1c0.4-76,0.8-151.9,1.1-227.9c0.2-46.3,0-92.7,0-139c0-1.8,0-3.6,0-5.9
		c4.6,0,9,0,14.2,0c0,62.9,0,125.9,0,190.6c5.1-4.2,9.2-7.2,12.9-10.6c25.6-24.4,51.3-48.9,76.7-73.6c11.4-11.1,22.8-22.4,33.2-34.4
		c10.3-11.8,16.6-25.9,18.7-41.7c1.2-8.6-3.7-18.8-11.1-23c-1.6-0.9-3.8-1.2-5.7-1.3c-3-0.2-5.9-0.1-8.8-0.1
		c-1.6-6.8-1.2-7.3,5.1-7.3c34.8,0,69.7,0,104.5,0c6.5,0,6.8,0.4,5.2,7c-3.9,0.3-8.2-0.3-11.7,1.1c-8.3,3.3-16.5,7-24.2,11.4
		c-17.7,10.2-32.7,23.8-47.3,37.9C908,229,886,249.9,864.1,271.1c-13.8,13.3-27.4,26.7-41.3,39.9c-2.6,2.5-2.7,4.6-0.5,7.3
		c20.6,25.6,41.1,51.3,61.7,77c16.5,20.4,33,40.8,49.6,61.1c20.3,24.8,43.1,46.7,70.7,63.7c13.5,8.3,27.3,7.8,41.6,7
		C1046,530.7,1046,534.4,1046,538z"/>
	<path d="M735.6,166.9c-43,51.2-86,102.3-129.5,154.1c-3.6-4-7.1-7.6-10.4-11.5c-16.2-19.2-32.3-38.4-48.4-57.6
		c-2.6-3.1-5-6.2-7.7-9.2c-2.8-3.2-2.6-6,0.1-9.2c10.5-12,20.8-24.2,31.2-36.3c7.7-9,15.4-17.9,22.9-26.9c2.8-3.4,5.7-5.2,10.5-5.2
		c41.7,0.2,83.3,0.1,125,0.1c1.8,0,3.5,0,5.3,0C735.1,165.8,735.3,166.4,735.6,166.9z"/>
	<path d="M448.2,342.5c7.5,8.6,14.5,16.5,21.3,24.6c13.7,16.2,27.4,32.5,41.1,48.7c0.3,0.4,0.7,0.7,1,1.1c6.7,8.1,6.5,8.9-0.5,17
		c-17.4,20.1-34.5,40.4-52,60.4c-2,2.3-5.8,4.2-8.8,4.3c-41.8,0.3-83.6,0.2-125.4,0.2c-1.9,0-3.8-0.4-7.4-0.8
		C361.5,445.6,404.6,394.3,448.2,342.5z"/>
</g>
</svg>
