<?xml version="1.0" encoding="utf-8"?>
<!-- Generator: Adobe Illustrator 23.0.3, SVG Export Plug-In . SVG Version: 6.00 Build 0)  -->
<svg version="1.1" id="Calque_1" xmlns="http://www.w3.org/2000/svg" xmlns:xlink="http://www.w3.org/1999/xlink" x="0px" y="0px"
	 viewBox="0 0 1835.7 860" style="enable-background:new 0 0 1835.7 860;" xml:space="preserve">
<style type="text/css">
	.st0{fill:#FF0000;}
</style>
<g>
	<path class="st0" d="M592.3,394.5c0-5.2,0-8.5,0-11.8c0-77.3,0.2-154.7-0.1-232c-0.1-29.3-10.4-54.4-31.4-75.6
		c-18.8-18.9-41-29.5-66.9-33.7c-11.4-1.8-22.6-4.3-34.3-4.2c-7.3,0-9.1-2.4-9.2-9.8c-0.1-7,0.2-14-0.1-21c-0.2-5,1.9-6.6,6.5-6.1
		c1.3,0.2,2.7,0,4,0c57.3,0,114.7,0.1,172-0.2c6.7,0,11.1,2.1,15.2,7.1c24.3,29.8,48.5,59.6,73.4,88.9
		c25.1,29.6,49.7,59.6,74.3,89.6c20,24.3,40.6,48.1,60.7,72.2c21.2,25.4,42.1,51.1,63.3,76.5c14.7,17.6,29.9,34.6,44.5,52.2
		c23.3,28.1,46,56.6,69.3,84.7c22.4,27,45.4,53.6,67.9,80.5c20,23.9,39.6,48.2,59.5,72.2c9.6,11.6,19.6,23,30.8,36.1
		c0-5.1,0-8.3,0-11.4c0-133.3,1-266.7-0.4-400c-0.9-78.9-0.3-157.9-1-236.8c-0.1-13.4-1.5-11.8,11.6-11.8c50.3-0.1,100.7,0,151,0
		c2.3,0,4.7,0.1,7,0c3.3-0.2,4.9,1.2,4.9,4.6c-0.1,8.3-0.1,16.7,0.1,25c0.1,3.3-1.8,4.4-4.3,5.8c-3.5,2-7.1,1.5-10.7,1.6
		c-21,0.4-41.4,4.2-60.4,13.5c-15.8,7.7-25.7,20.9-30.5,37.6c-6,21-7.4,42.8-8.3,64.5c-0.9,22,0.4,44-1.1,65.9
		c-4.2,59.9-0.6,119.8-1.9,179.6c0,1.6-0.2,3.3,1.4,5.1c16.2-5,30.4-13.9,43.8-24.2c15.9-12.2,30.4-25.8,44.7-39.7
		c20.3-19.6,40.8-39,60.7-59.1c25.9-26.2,52.5-51.8,77.7-78.7c17.9-19.2,35.1-38.9,53.2-57.9c18.4-19.2,33.6-41.2,53-59.6
		c21.6-20.5,43.8-40.1,70.6-53.5c22.6-11.3,46.4-18.3,72-18.2c26.7,0.1,53.3-0.2,80-0.2c9,0,9.1,0.1,9.1,9.4c0,6.3,0.1,12.7,0,19
		c-0.2,7.2-1.7,8.9-8.7,9.1c-16.9,0.5-33.6,3.2-50.2,6c-34.2,5.7-65.3,18.6-93.2,39.4c-33.9,25.3-65.3,53.4-95.3,83.2
		c-20,19.9-40.8,39-61.1,58.7c-14.3,13.9-28.3,28.2-42.5,42.2c-29.5,29.3-59.1,58.4-88.5,87.8c-3,3-7.8,5.4-8.1,9.7
		c-0.3,4.1,4.5,6.2,7,9.2c17,20.4,34,40.8,51.2,61c15.3,17.9,30.6,35.8,46.3,53.4c18.8,21,36.7,42.8,55.9,63.5
		c20.6,22.1,39.9,45.4,60.3,67.7c21,23.1,41.7,46.4,63.1,69.1c13.2,14,25.8,28.6,39.5,42.1c20.6,20.2,41.6,40.1,66.9,54.7
		c12.1,7,24.9,12.2,38.6,15.5c12.2,2.9,24.4,5.5,36.8,6.7c3.1,0.3,3.8,2.2,3.8,4.8c0,9.7-0.1,19.3,0,29c0,3.5-1.6,4.8-4.8,4.7
		c-1.7-0.1-3.3,0-5,0c-34.6-0.5-69.3,1.4-103.9-1.8c-13.3-1.2-26.3-3.8-39-7.9c-30.6-9.9-57.1-26.9-81.9-46.9
		c-27.6-22.2-52-47.5-74.7-74.7c-18.3-21.9-37.7-42.9-56.4-64.5c-13.3-15.3-26.7-30.4-39.7-45.9c-16-19.1-32.8-37.4-49.2-56.1
		c-19.5-22.3-38.7-44.7-58.2-66.9c-12.1-13.6-23.3-28.1-37.6-39.6c-9.6-7.7-20.5-12-32.7-13.1c-3.2-0.3-5.1,0.9-5,4.4c0,2,0,4,0,6
		c0,100.7,0.1,201.3-0.1,302c0,13.7,2.6,26.3,10.5,37.7c9.2,13.4,23.2,18.6,37.9,21.6c19,4,38.2,7,57.8,7.5c8.5,0.2,8.8,1,8.9,9.4
		c0.1,7,0.1,14,0,21c-0.1,7.9-0.1,8-8.5,8c-20.3,0.1-40.7,0-61,0c-12.3,0-24.7-0.8-37,0.2c-13,1.1-25.9,1-38.8,1.5
		c-5.3,0.2-8.5-1.8-11.7-5.7c-22.6-28.2-45.2-56.5-68.2-84.4c-24.2-29.4-48.3-58.9-72.3-88.5c-28.8-35.6-58.1-70.7-87.1-106.1
		c-23.3-28.4-46.7-56.8-69.9-85.3c-25.7-31.6-51.3-63.3-77.1-94.9c-21.8-26.7-43.9-53.1-65.8-79.7c-13.2-16.1-26.1-32.6-39.3-48.8
		c-19.5-23.9-39.1-47.7-58.6-71.5c-5.8-7.1-11.7-14.1-19.2-20.7c0,2.8,0,5.7,0,8.5c0,113-0.5,226,0.3,339c0.2,29.3,0,58.6,1.1,87.9
		c0.5,12.6-0.1,25.3,1,37.9c1.7,18.1,2,36.4,3.8,54.4c1.1,10.8,1.3,21.7,3.1,32.5c3.5,21,10.3,40.3,28.6,53.5
		c9.1,6.5,19.4,10.3,30,12.6c18,3.9,36.2,7.3,54.8,7.4c1.3,0,2.6,0.4,4,0.4c5,0.2,7.7,2,7.3,7.8c-0.5,8-0.4,16,0,24
		c0.2,4.9-1.7,6.7-6.4,6.1c-1.3-0.2-2.7,0-4,0c-96,0.1-192,0.2-288,0.2c-12.6,0-11,1.1-11.1-11.3c-0.1-6.3,0.4-12.7-0.1-19
		c-0.4-5.4,2.1-7.5,6.7-7.6c8.9-0.2,17.8-1.4,26.6-2.5c17.3-2.1,34.6-4.3,51.1-10.9c16.1-6.4,24.3-18.9,29.3-34.3
		c3.6-11.1,4.6-22.6,5-34.2c0.6-16,1.3-31.9,1-47.9c-0.1-6.6,0.8-13.2-1.9-19.7c-1.1-2.6-1.1-6.2-0.1-8.9c3.1-8.4,1.9-17.1,1.9-25.6
		c0.1-60,0.1-120,0.1-180c0-2,0-4,0-6c-0.1-8.4-2.4-10.1-10.8-9.3c-16.5,1.5-29.3,10-40.4,21.3c-17.5,17.7-33.3,37-49.5,55.8
		c-20.2,23.3-40.8,46.4-61.1,69.7c-10.9,12.5-21.8,25-32.6,37.5c-17.6,20.3-35.1,40.8-52.9,61c-23,26.2-45.1,53.2-69.3,78.3
		c-20.4,21.2-42.9,40-67.1,56.6c-36.2,24.8-76.4,37.1-120.3,37.2c-27,0-54,0.1-81,0c-7,0-7-0.2-7.1-7.1c-0.1-7.7-0.1-15.3,0-23
		c0.1-7.5,0.2-7.2,7.4-8.3c23.6-3.5,47-8.2,68.1-19.8c12.8-7,24.6-15.7,35.8-25.2c26.1-22.2,49.5-47.1,72.8-72.2
		c24.4-26.3,48.3-53,72.7-79.3c17.4-18.7,33.4-38.7,50.8-57.4c21.5-23.1,41.3-47.7,62.6-70.9c15-16.4,29.1-33.6,43.5-50.6
		c17.6-20.7,35.1-41.7,52.9-62.3c3.5-4.1,3.1-5.9-0.6-9.6c-28.8-29-57.8-57.7-87-86.3c-20.6-20.3-41-40.8-61.7-61
		c-28.3-27.7-56.5-55.3-85.7-82c-24-21.9-48.8-43.1-76.7-60.1c-15.1-9.2-31.1-16-48.2-20.7c-15.6-4.3-31.3-7.5-47.6-9
		c-9.8-0.9-19.5-2.9-29.5-3.2c-5.9-0.2-7.5-2.1-7.6-8.1c-0.2-7.3-0.1-14.7,0-22c0.1-7.6,0.1-7.8,7.6-7.8c24.3,0.1,48.7,0,73,0.5
		c11.6,0.2,23.2,0.4,34.8,2.7c24.6,4.9,47,14.6,67.5,28.8c30.3,21,56.6,46.3,79.6,75.2c7.8,9.8,16.4,19.1,24.9,28.3
		c17.9,19.6,35.8,39.2,54.1,58.4c20.2,21.1,40.9,41.8,61.6,62.5c19.5,19.5,39.2,38.9,59.1,58c19.2,18.4,37.7,37.4,59,53.5
		C557.7,379.4,573.5,388.3,592.3,394.5z"/>
	<path class="st0" d="M1138.4,253c-45,53.6-89,105.9-133.5,158.8c-9.5-11-18.6-21.3-27.5-31.8c-10.9-12.9-21.4-26-32.2-38.9
		c-3.8-4.5-9.6-8.9-10.2-14.1c-0.6-5.1,6.1-8.9,9.7-13.3c15.3-18.5,30.8-36.7,46.1-55.1c3.3-4,6.7-6.4,12.5-6.4
		c42.6,0.3,85.2,0.2,127.8,0.2C1133,252.4,1134.9,252.7,1138.4,253z"/>
	<path class="st0" d="M728.9,570.4c39-46.4,77.9-92.7,117.2-139.5c23.9,28.5,47.5,56.5,71.3,84.9c-15.3,18.2-30.2,36-45.1,53.8
		c-1.9,2.3-4.2,2.9-7.1,2.9c-44.9-0.1-89.8-0.1-134.7-0.2C730.3,572.3,730.1,571.9,728.9,570.4z"/>
</g>
</svg>
