<?xml version="1.0" encoding="utf-8"?>
<!-- Generator: Adobe Illustrator 23.0.3, SVG Export Plug-In . SVG Version: 6.00 Build 0)  -->
<svg version="1.1" id="Calque_1" xmlns="http://www.w3.org/2000/svg" xmlns:xlink="http://www.w3.org/1999/xlink" x="0px" y="0px"
	 viewBox="0 0 2500 2886" style="enable-background:new 0 0 2500 2886;" xml:space="preserve">
<style type="text/css">
	.st0{fill:#FF0000;}
</style>
<g>
	<path class="st0" d="M1323.5,859.4c22,26.6,44,53.3,66,79.9c17.6,21.2,35.4,42.4,53.1,63.5c1.2,1.5,2.6,2.9,3.9,4.3
		c2.9-1.7,1.7-4.3,1.7-6.4c0.1-94,0.5-188-0.1-281.9c-0.3-52.3-0.1-104.6-0.4-156.9c0-2,0.1-4,0-6c-0.1-2.9,1.1-4.3,4.1-4.2
		c1.3,0.1,2.7,0,4,0c35,0,70,0,105,0c7.6,0,7.6,0.1,7.7,7.5c0,3,0.1,6,0,9c-0.1,8-1,9.3-9.2,9.3c-11.4,0.1-22.3,2.1-33.2,5.3
		c-21.7,6.4-31.2,22.3-34,43.4c-3.1,23.7-3.1,47.6-3.6,71.5c-2.8,146.2-0.4,292.5-1.2,438.7c-0.1,12.7,0.5,10.1-11.5,11.2
		c-10.9,1-17.4-3.2-24.1-11.5c-34.9-43.6-70.6-86.6-105.9-129.9c-26.1-31.9-52-64-78.1-96c-1.2-1.5-2.7-2.9-4-4.4
		c-11.5-6.9-17.5-18.7-25.8-28.5c-17.9-21.2-35.1-43-52.9-64.4c-2.8-3.3-5.2-6.9-6.5-11c-13.7-17.1-27.4-34.2-41.2-51.2
		c-21.2-26-42.5-52-63.7-78c-3,0.9-1.9,3.3-1.9,5c-0.1,78.6-0.1,157.3,0,235.9c0,18.6-0.2,37.3,0.7,55.9c1.1,25.2,1.4,50.4,4.8,75.4
		c1.1,8.2,0.6,16.5,2.8,24.6c4.8,17.8,15.1,29.7,33.1,35.1c13.4,4,27.2,5.6,41,6.7c10,0.8,10.2,0.4,10,9.9
		c-0.1,5.2,2.4,11.8-1.2,15.4c-3.6,3.6-10.1,1.2-15.4,1.2c-34.7,0.1-69.3,0.1-104,0.1c-12.5,0-11,1-11-11.4c-0.1-33.3,0-66.6,0-100
		c0-122.9-0.1-245.7,0.1-368.6c0-31.8-14.8-54.5-41.8-69.5c-14.1-7.8-30-10.1-46-11.1c-10.4-0.6-10.5-0.6-10.6-10.9
		c-0.1-15.1-0.1-15.1,15.3-15.1c36.3,0,72.6,0.2,109-0.2c6.4-0.1,10.2,2,14.2,6.9c18.3,22.4,37.1,44.4,55.6,66.7
		c30.2,36.3,60.2,72.7,90.5,108.9c5.5,6.6,10.4,13.8,17,19.5c7.1,2.6,10.1,9.5,14.4,14.7c23.4,27.6,46.2,55.6,69.6,83.3
		C1321.8,853.8,1322.8,856.5,1323.5,859.4z"/>
</g>
</svg>
