<?xml version="1.0" encoding="utf-8"?>
<!-- Generator: Adobe Illustrator 25.3.1, SVG Export Plug-In . SVG Version: 6.00 Build 0)  -->
<svg version="1.1" id="Calque_1" xmlns="http://www.w3.org/2000/svg" xmlns:xlink="http://www.w3.org/1999/xlink" x="0px" y="0px"
	 viewBox="0 0 1046 2291" style="enable-background:new 0 0 1046 2291;" xml:space="preserve">
<g>
	<path d="M326,0c5.5,7.2,10.8,14.6,16.5,21.6c26.9,33.2,53.7,66.4,80.8,99.4c18.1,22.1,36.4,44,54.7,66c14.9,18,29.8,36.2,44.9,54.1
		c17.5,20.9,35.3,41.6,52.8,62.5c20.7,24.7,41.3,49.5,61.9,74.3c17.2,20.7,34.4,41.4,51.6,62.1c20.9,25.2,41.8,50.3,62.8,75.5
		c4.4,5.3,9,10.6,14.4,17c0.4-3.3,0.8-5.4,0.8-7.6c0.4-41.5,1-82.9,1-124.4c0.2-80.8,0-161.7,0-242.5c0-2,0-4,0-6.8
		c4.2,0,8.1-0.2,12,0.2c0.9,0.1,2.3,2.1,2.4,3.3c0.3,4.3,0.2,8.7,0.2,13c0,55.5,0,111,0,166.5c0,2.1,0,4.2,0,7.8
		c5.1-4.3,9.4-7.5,13.3-11.2c25.5-24.3,51.1-48.6,76.4-73.2c11.4-11.1,22.8-22.4,33.2-34.4c10-11.6,16.4-25.4,18.2-40.9
		c1-8.6-1.6-16.2-8.8-21.5c-2.3-1.7-5.6-2.5-8.6-3.1c-2.6-0.5-5.3-0.1-7.9-0.1c-2.2-6.3-1.6-7.3,4.5-7.3c35,0,70,0,105,0
		c6.3,0,6.3,0,5.4,6.6c-0.3,0.2-0.6,0.5-0.8,0.5c-13.8-1.4-24.5,6.1-35.5,12.4c-17.7,10.2-32.7,23.8-47.3,38
		c-21.9,21.2-43.9,42.1-65.9,63.2c-13.7,13.2-27.2,26.5-40.9,39.6c-2.8,2.6-2.8,4.8-0.5,7.7C851,354,879.3,389.6,908,425
		c14.9,18.3,30,36.4,45.9,53.9c16.4,18.1,35.4,33.1,57.1,44.5c5.1,2.7,10.2,4.5,16.2,4.1c6.3-0.4,12.6-0.3,18.9-0.5
		c0,3.7,0,7.3,0,11c-34.8-0.1-69.7-0.3-104.5,0c-6.9,0-11.2-2.4-15.4-7.8c-26.2-33.9-52.5-67.8-79.2-101.3
		c-19.6-24.7-39.8-49-59.7-73.5c-1-1.3-2.2-2.4-4-4.2c-0.3,1.9-0.6,3-0.6,4.2c0,55.2-0.5,110.3,0.3,165.5c0.2,15.8,7.3,30.3,16.9,43
		c20.4,26.8,48.3,41.4,80.9,47.3c12.5,2.3,25.3,2.8,38.6,4.2c0,10.8,0,22.5,0,34.7c-2,0-3.8,0-5.6,0c-62.5,0-125,0-187.5,0.1
		c-3.4,0-5.7-0.7-8-3.6c-28.4-35.3-56.9-70.6-85.7-105.7c-26-31.8-52.2-63.3-78.5-94.9c-31.8-38.2-63.7-76.2-95.6-114.3
		c-30.5-36.5-60.9-73-91.3-109.5c-20.6-24.8-41.1-49.7-61.7-74.4c-8.2-9.8-16.5-19.5-25.8-30.5c-0.4,8.7-0.9,16-1,23.3
		c-0.1,111-0.1,222-0.2,333c0,7-0.1,14,0,21c0.1,3.2-0.9,4.5-4.2,4.4c-12.7-0.3-10.8,1.6-10.9-10.4c-0.1-44.8,0-89.7,0-134.5
		c0-1-0.1-1.9-0.2-4c-7.6,9.1-14.7,17.3-21.5,25.8c-27.3,34.1-54.6,68.2-81.7,102.5c-14,17.7-27.8,35.6-41.6,53.5
		c-2.8,3.6-5.9,5.4-10.5,5.4c-22.8-0.1-45.7-0.1-68.5-0.1c-13.2,0-26.3,0-39.5,0.1c0-3.3,0-6.7,0-10c7.5-0.2,15-0.2,22.5-0.6
		c2.7-0.1,5.6-0.7,8.1-1.8c24.2-10.9,44.5-27.2,62.1-46.7c19.1-21.2,37.1-43.4,55.1-65.6c25.4-31.3,50.4-63,75.7-94.5
		c2.6-3.2,2.5-5.2-0.4-8c-13.7-13.1-27.3-26.4-40.9-39.6c-21.9-21.1-43.9-42.1-65.8-63.2c-15.4-14.8-31.1-29.1-49.9-39.4
		c-8.9-4.9-17.4-11.2-28.5-10.5c-5.9,0.4-6.3-0.5-5.1-6.7c0.1-0.1,0.3-0.2,0.4-0.2c37.5-0.1,75-0.1,112.5,0c1.1,0,3.3,2.2,3.1,3
		c-0.3,1.5-1.8,3.1-3.2,3.8c-1.2,0.6-2.9,0.3-4.4,0.1c-7.8-0.8-12.4,3.6-15.9,9.8c-3.1,5.5-3.6,11.4-2.5,17.4
		c2.9,16.5,10.6,30.8,21.7,43c9.4,10.3,19.5,20,29.5,29.7c25.7,24.8,51.6,49.6,77.5,74.3c3.4,3.2,7.2,6,11.6,9.6
		c0.1-3.1,0.3-4.7,0.3-6.4c0-66.8,0.1-133.6-0.2-200.5c0-7-1.3-14.2-3.3-20.9c-8.1-26.5-26.1-45-49.7-58.5
		c-22.6-12.9-47.1-18.5-72.9-19c-3.6-0.1-7.2,0-11.3,0c0-12.5,0-24.1,0-35.8C192.7,0,259.3,0,326,0z"/>
	<path d="M0,737c15,0,30,0.1,45,0c3.2,0,5,0.7,6.3,3.9c17.1,39,34.4,78,51.6,116.9c2.1,4.7,4.2,9.4,6.7,14.9
		c3.9-9,7.5-17.2,11.1-25.5c9.6-22.4,19.1-44.8,28.8-67.2c1.3-2.9,1.1-5.2-0.2-7.9c-4.7-9.9-9.2-19.8-13.8-29.8
		c-0.7-1.5-1.2-3-2-5.2c14.3,0,28.1-0.1,41.8,0.2c1.2,0,2.9,2.4,3.6,4c8.4,18.9,16.7,37.9,25,56.9c11.2,25.5,22.3,51,34,77.7
		c2.3-5.4,4.3-9.9,6.2-14.5c16-39.5,32-78.9,47.8-118.5c1.8-4.4,4-6.2,9-6c14.1,0.4,28.3,0.2,43.4,0.2
		c-34.4,79.4-68.5,158.3-103.1,238.2C217.1,924,193.4,873.5,169.3,822c-21.9,51.3-43.4,101.8-65.3,153.3c-4-9.1-7.6-17.2-11.1-25.3
		c-14.5-33.1-28.9-66.2-43.4-99.3c-16.1-36.8-32.2-73.5-48.3-110.2c-0.2-0.5-0.7-0.9-1.1-1.4C0,738.3,0,737.7,0,737z"/>
	<path d="M1046,1189c-5.6,0-11.3,0-17.6,0c0-3.3,0-6.2,0-9.2c0-13.2-0.1-26.3,0-39.5c0-6.8-0.5-13.4-7.8-16.3
		c-7.5-2.9-14.4-1-20.4,4c-5.9,4.9-9.1,11.5-9.3,19.1c-0.3,12.3-0.2,24.6-0.2,37c0,1.5-0.2,2.9-0.3,4.6c-6.1,0-11.8,0-17.9,0
		c0-26,0-51.9,0-78.3c5.1,0,10.3,0,16,0c0.4,3.8,0.7,7.6,1,11c5.3-3.9,9.8-8.5,15.4-11c11.1-5,22.6-5.8,33.1,1.9
		c3.3,2.4,5.4,6.4,8.1,9.6C1046,1144.3,1046,1166.7,1046,1189z"/>
	<path d="M0,1051c5.3,0,10.6,0,16.3,0c0,46.2,0,91.7,0,138c-5.4,0-10.8,0-16.3,0C0,1143,0,1097,0,1051z"/>
	<path d="M409.9,1748c56.8,0,112.9,0,169.5,0c0,36.2,0,72,0,108.5c-56.3,0-112.6,0-169.3,0c0,142.9,0,285.3,0,428.1
		c-40.5,0-80.5,0-121,0c0-142.5,0-284.9,0-427.9c-30.8,0-61.2,0-91.8,0c0-36.4,0-72.2,0-108.5c30.5,0,60.9,0,91.8,0
		c0-2.5,0-4.5,0-6.4c0-79.3-0.5-158.7,0.3-238c0.4-43.9,8.5-86.5,28.7-126.1c17.5-34.1,42.8-60.6,77.7-77.2
		c22.1-10.5,45.5-16,69.8-18.7c38.1-4.2,75.2,0.1,111.4,12.3c13.6,4.6,26.1,11.4,37.8,20.1c-17,29.2-33.8,58.1-50.9,87.4
		c-8.3-8.1-17.3-14.3-28.2-16.9c-36.3-8.9-69.3-3.8-96.3,24.1c-12.3,12.7-18.3,28.7-22.5,45.4c-4.9,19.3-6.9,39-6.9,58.7
		c-0.2,76.8-0.1,153.7-0.1,230.5C409.9,1744.8,409.9,1746.1,409.9,1748z"/>
	<path d="M804.9,1748.5c3.1,41,6.1,81.6,9.2,122.1c20.5-41.3,52.1-72.4,89.9-97.5c37.7-25,78.2-43.2,125.1-46.2
		c-2.2,40.4-4.3,79.9-6.5,120c-3.9,0-7.5,0.1-11.1,0c-46.4-1.2-87.5,12.9-123.1,42.8c-34.1,28.5-56.8,64.3-66.9,107.5
		c-3.3,14.3-4.6,29.3-4.7,43.9c-0.4,79-0.2,158-0.2,236.9c0,2.1,0,4.3,0,6.7c-40.2,0-79.9,0-119.9,0c0-178.7,0-357.3,0-536.2
		C732.6,1748.5,768.5,1748.5,804.9,1748.5z"/>
	<path d="M585.9,876.1c3.7-8.9,6.9-16.8,10.2-24.8c14.6-36.1,29.3-72.2,43.7-108.3c1.8-4.4,3.9-6.2,9-6c14.1,0.4,28.3,0.2,43.4,0.2
		c-34.4,79.4-68.5,158.3-103.1,238.2C565.1,924,541.4,873.5,517.3,822c-21.9,51.3-43.4,101.8-65.4,153.3
		c-34.9-79.9-69.4-158.7-104.2-238.3c16.5,0,32.1-0.1,47.7,0.1c1.2,0,2.9,1.9,3.5,3.2c8.7,19.3,17.3,38.7,25.9,58.2
		c10.8,24.4,21.5,48.8,32.7,74.2c3.9-9.1,7.5-17.3,11.1-25.6c9.6-22.4,19.1-44.8,28.8-67.2c1.3-2.9,1.1-5.1-0.2-7.9
		c-4.7-9.9-9.2-19.8-13.8-29.8c-0.7-1.5-1.2-3-2-5.3c11.5,0,22.4,0,33.3,0c10.4,0,10.3,0,14.5,9.7c14.3,32.7,28.6,65.3,42.9,98
		C576.5,854.7,580.9,864.7,585.9,876.1z"/>
	<path d="M695.7,737.1c16.5,0,31.8-0.1,47.1,0.1c1.4,0,3.4,1.7,4,3.2c11.1,24.6,22,49.4,32.9,74.1c8.4,19.1,16.9,38.2,25.7,58.3
		c3.9-9,7.5-17.2,11-25.5c9.6-22.4,19.1-44.8,28.9-67.2c1.4-3.2,1-5.5-0.3-8.4c-4.7-9.9-9.2-19.8-13.8-29.8c-0.6-1.3-1-2.7-1.8-4.9
		c6.3,0,12,0,17.7,0c7.2,0,14.3,0.2,21.5-0.1c3.4-0.2,5,1.2,6.3,4.1c10.9,25.3,22,50.5,33,75.7c8.5,19.4,17,38.8,26,59.3
		c3.7-9,7-17.1,10.2-25.2c14.6-36.1,29.3-72.2,43.8-108.3c1.6-4,3.4-5.8,8.2-5.7c14.3,0.4,28.6,0.2,44,0.2
		c-34.4,79.5-68.5,158.4-103.1,238.2C913,923.9,889.4,873.5,865.3,822c-21.9,51.3-43.4,101.8-65.4,153.3
		C765,895.5,730.5,816.7,695.7,737.1z"/>
	<path d="M448.2,342.4c8.4,9.7,16.3,18.7,23.9,27.8c13.9,16.5,27.7,33.1,41.6,49.6c3.1,3.7,3.6,6.7,0,10.8
		c-14.9,17-29.5,34.3-44.1,51.5c-3.6,4.2-6.8,8.7-10.8,12.4c-2.2,2.1-5.6,4-8.4,4c-42,0.3-83.9,0.2-125.9,0.2
		c-1.8,0-3.5-0.3-7.1-0.7C361.5,445.6,404.5,394.4,448.2,342.4z"/>
	<path d="M140,2216.6c-0.1,38.4-30,68.2-68.1,68.3c-29.4,0.1-68.9-25.9-67.1-70.7c1.4-35.5,32.7-66.8,69-67.4
		C101.8,2146.5,142.2,2177.1,140,2216.6z"/>
	<path d="M412,1178.6c0,16.6,0,32.2,0,48.1c-6,0-11.7,0-17.7,0c0-39.1,0-78,0-117.3c5,0,9.9,0,15.4,0c0.5,3.4,1.1,7.1,1.8,11.8
		c12.6-12.4,27.2-17.1,44-12.8c9.1,2.3,15.9,8.1,21,15.9c11.6,17.5,8.8,43.4-6.1,56.6C456.6,1193,430,1196.8,412,1178.6z
		 M438,1122.6c-17.1,0.2-25.6,10.7-25.4,31.2c0.1,12.9,11.3,22.8,25.3,22.5c15.5-0.3,27.4-12.2,27.1-27.2
		C464.7,1133.9,453.1,1122.4,438,1122.6z"/>
	<path d="M203.5,1108.3c3.7,3.1,7.3,6.1,11.4,9.6c-9.7,7.9-19.3,15.7-29.1,23.7c10.8,15.6,21.4,31.1,32.7,47.4
		c-7.2,0-13.5,0.2-19.7-0.1c-1.2-0.1-2.8-1.5-3.5-2.7c-6.7-10.2-13.3-20.6-20-30.9c-0.6-0.9-1.3-1.8-2.2-2.9
		c-5.8,3.6-10.7,6.9-9.7,15c0.8,7,0.2,14.2,0.2,21.5c-6.4,0-12.2,0-18.2,0c0-49,0-97.7,0-147.3c5.3,0,10.7-0.2,16.1,0.2
		c0.8,0.1,2,3,2,4.6c0.1,19.7,0.1,39.3,0.1,59c0,11.1,0,22.3,0,35C177.5,1129.1,190.4,1118.7,203.5,1108.3z"/>
	<path d="M726.3,1120c0.4-3.1,0.8-6.1,1.3-9.5c5.5,0,10.9,0,16.7,0c0,26,0,52.1,0,78.3c-6,0-11.8,0-18.1,0c0-3.5,0-6.9,0-10.6
		c-4,2.9-7.2,5.8-10.9,7.9c-21.1,12.2-56.9,3.5-59-32.5c-1-17.7,4.6-32.5,20.7-41.8c12.9-7.4,34.2-7.9,46.6,6.6
		c0.5,0.6,0.9,1.4,1.3,2.1C725.4,1120.3,725.8,1120.2,726.3,1120z M726.1,1148.5c0-15.9-10.2-26.5-25.6-26.5
		c-14.4-0.1-25.7,11.6-25.7,26.7c-0.1,15.3,11.6,27.5,26.3,27.4C713.2,1176,728.1,1167.2,726.1,1148.5z"/>
	<path d="M268.2,1107c22,0,37.9,11.5,42,32.2c6.1,30.4-14.4,51.6-40.2,51.9c-14.9,0.2-28-3.5-37.3-16c-10.5-14.1-11.5-29.8-4-45.1
		c7.3-14.8,20.3-22.4,37-22.9C266.5,1107,267.3,1107,268.2,1107z M267.7,1121.9c-13.6-0.1-24.9,12.2-25,27
		c-0.1,14.9,11,27,24.7,27.1c14.2,0.1,25.5-11.7,25.6-26.9C293.1,1134.2,281.8,1122,267.7,1121.9z"/>
	<path d="M537.8,1191c-26.1,0-43.4-16.9-43.6-42.1c-0.2-24.6,20.8-42.2,44.2-42.2c25.3,0.1,43.4,19.8,43,43
		C581,1170.7,564.5,1192.2,537.8,1191z M512.7,1149c0,14.8,11.1,27,24.9,27c14.2,0,25.5-11.9,25.5-27c0-15-11.4-27.1-25.5-27.1
		C524,1122,512.7,1134.3,512.7,1149z"/>
	<path d="M910.9,1107c22.1,0,37.9,11.4,42.2,32c6.3,30.5-14.5,51.9-40.4,52.1c-16.2,0.1-30.1-4.6-39-18.7
		c-8.7-13.8-9.3-28.8-1.7-43.2c7.5-14.3,20.2-21.6,36.5-22.2C909.3,1107,910.1,1107,910.9,1107z M910.4,1121.9
		c-13.6,0.1-24.8,12.4-24.8,27.2c0,14.8,11.3,26.9,25,26.9c14.2,0,25.4-12,25.4-27.1C935.9,1133.9,924.5,1121.8,910.4,1121.9z"/>
	<path d="M64.4,1188.9c-6.2,0-11.8,0-17.9,0c0-26.1,0-52.1,0-78.5c5.2,0,10.3,0,16,0c0.3,3.7,0.6,7.6,1,11.9
		c3.9-3.4,6.8-6.7,10.4-9.2c11.5-8,27.8-8.3,38-1c5.7,4,8.9,9.8,9,16.5c0.3,19.6,0.1,39.3,0.1,59c0,0.3-0.2,0.6-0.5,1.2
		c-5.7,0-11.4,0-18,0c0-1.7,0-3.5,0-5.2c0-14.3-0.1-28.6,0-43c0-6.8-0.4-13.4-7.7-16.4c-7.4-3-14.4-1.1-20.4,3.9
		c-5.9,4.9-9.2,11.4-9.4,19c-0.4,12.8-0.2,25.6-0.3,38.5C64.6,1186.5,64.5,1187.4,64.4,1188.9z"/>
	<path d="M762.5,1125c0-5,0-9.4,0-14.5c4.4,0,8.7,0,13.9,0c0-8.9,0-17.1,0-25.4c0-9.7,0-9.7,9.8-9.7c2.8,0,5.6,0,8.7,0
		c0,11.8,0,22.9,0,34.7c7.3,0,14.4,0,21.7,0c0,5.1,0,9.5,0,14.7c-7,0-14,0-21.4,0c0,21.6,0,42.5,0,63.8c-6.2,0-12.1,0-18.6,0
		c0-20.9,0-42,0-63.6C771.5,1125,767.1,1125,762.5,1125z"/>
	<path d="M347,1188.9c-6.2,0-11.6,0-17.5,0c0-26.1,0-52.1,0-78.4c5.1,0,10.2,0,15.8,0c0.5,4.9,1,9.9,1.6,15.9
		c8-11,17.8-17.7,30.7-19.4c0,6.1,0,11.7,0,16.3c-6.5,2.3-12.8,3.5-17.9,6.7c-8.7,5.4-12.6,14.2-12.7,24.5
		C346.9,1165.8,347,1177.1,347,1188.9z"/>
	<path d="M599.5,1110.2c5.5,0,10.5,0,15.9,0c0.5,5.1,1,10.2,1.6,16.2c7.8-11.1,17.7-17.6,30.7-19.6c0,6.1,0,11.8,0,16
		c-7,2.9-13.7,4.6-19.1,8.1c-8.2,5.3-11.4,13.9-11.4,23.6c-0.1,11.3,0,22.6,0,34.1c-6,0-11.6,0-17.5,0
		C599.5,1162.7,599.5,1136.7,599.5,1110.2z"/>
	<path d="M849.3,1188.7c-6.2,0-12,0-18,0c0-26.2,0-52,0-78.3c6,0,11.8,0,18,0C849.3,1136.5,849.3,1162.4,849.3,1188.7z"/>
	<path d="M840.7,1091.9c-6.4-0.1-10.9-4.4-10.7-10.4c0.1-5.4,5.1-10,10.8-10.1c5.3,0,10.6,5.2,10.6,10.4
		C851.5,1087.4,846.6,1092,840.7,1091.9z"/>
	<path d="M736.7,165.6c-44.1,52.4-87.1,103.7-130.6,155.4c-6.1-6.9-11.8-13.3-17.4-19.8c-15.3-18.1-30.6-36.3-45.9-54.5
		c-0.4-0.5-0.9-1-1.3-1.5c-5.3-6.6-5.2-7.5,0.2-13.8c17.5-20.4,35-40.9,52.4-61.4c2.7-3.2,5.6-4.9,10.2-4.9
		c41.8,0.2,83.6,0.1,125.4,0.1C731.5,165.2,733.2,165.4,736.7,165.6z"/>
</g>
</svg>
